<svg fill="none" height="800" viewBox="0 0 2000 800" width="2000" xmlns="http://www.w3.org/2000/svg"><path d="m0 0h2000v800h-2000z" fill="#151515"/><path d="m495.979 405.835c13.98 0 24.294-5.386 30.367-12.72l-11.688-9.969c-4.699 5.156-10.543 7.792-18.335 7.792-15.814 0-25.554-11.917-25.554-26.585s9.74-26.814 25.21-26.814c7.219 0 13.178 2.521 17.991 7.563l11.345-9.855c-7.22-8.595-16.272-12.605-29.336-12.605-24.751 0-41.825 18.678-41.825 41.711 0 22.918 17.99 41.482 41.825 41.482zm61.858 0c18.449 0 31.742-13.98 31.742-31.169s-13.293-31.283-31.742-31.283-31.742 14.094-31.742 31.283 13.293 31.169 31.742 31.169zm-16.272-31.169c0-9.282 6.417-17.189 16.272-17.189s16.272 7.907 16.272 17.189-6.417 17.074-16.272 17.074-16.272-7.792-16.272-17.074zm54.86 29.679h15.47v-30.481c0-9.969 6.876-15.928 15.814-15.928h2.177v-14.553c-10.313-.573-16.387 4.125-18.449 12.719v-11.344h-15.012zm64.231 1.49c11.803 0 21.773-5.271 26.585-12.72l-12.032-9.052c-2.75 4.583-7.906 8.021-14.553 8.021-7.792 0-13.063-4.927-14.782-11.918h44.576c.344-1.948.458-3.781.458-5.5 0-17.189-12.375-31.398-30.252-31.398-17.876 0-30.825 14.209-30.825 31.398s12.376 31.169 30.825 31.169zm-14.782-37.242c1.719-7.105 7.219-12.032 14.553-12.032 7.563 0 13.178 5.386 14.897 12.032zm95.548 37.242c18.22 0 29.336-9.855 29.336-24.408 0-18.335-16.501-22.46-25.898-25.439-6.99-2.177-12.719-4.125-12.719-10.084 0-5.386 4.698-8.824 11.115-8.824 5.959 0 9.625 2.865 13.522 9.053l13.751-8.48c-5.959-9.396-13.981-14.897-26.471-14.897-16.959 0-28.304 9.511-28.304 23.95 0 12.147 7.907 19.366 20.283 22.574 9.854 2.521 18.334 5.042 18.334 13.064 0 5.5-4.583 9.167-12.032 9.167-6.99 0-13.636-3.552-17.761-11.803l-13.866 8.824c6.99 12.261 17.991 17.303 30.71 17.303zm65.292 0c18.449 0 31.742-13.98 31.742-31.169s-13.293-31.283-31.742-31.283-31.742 14.094-31.742 31.283 13.293 31.169 31.742 31.169zm-16.272-31.169c0-9.282 6.417-17.189 16.272-17.189s16.272 7.907 16.272 17.189-6.417 17.074-16.272 17.074-16.272-7.792-16.272-17.074zm76.977 31.054c9.282 0 14.667-3.437 17.532-10.313v8.938h15.012v-59.587h-15.47v32.658c0 10.313-5.844 14.783-12.376 14.783-7.678 0-11.917-4.47-11.917-14.783v-32.658h-15.47v36.44c0 15.011 9.855 24.522 22.689 24.522zm41.67-1.375h15.469v-30.481c0-9.969 6.876-15.928 15.814-15.928h2.177v-14.553c-10.313-.573-16.386 4.125-18.449 12.719v-11.344h-15.011zm64.116 1.49c11.688 0 19.939-4.24 25.554-11.459l-11.23-9.74c-3.094 4.125-6.99 7.104-12.949 7.104-9.855 0-16.616-7.907-16.616-17.188 0-9.282 6.418-17.189 16.272-17.189 5.272 0 9.855 2.635 12.605 6.761l11.918-9.74c-5.042-6.991-13.866-11.23-24.752-11.116-18.22.115-31.512 13.98-31.512 31.284 0 17.303 13.636 31.283 30.71 31.283zm56.405 0c11.8 0 21.77-5.271 26.58-12.72l-12.03-9.052c-2.75 4.583-7.91 8.021-14.55 8.021-7.79 0-13.07-4.927-14.78-11.918h44.57c.35-1.948.46-3.781.46-5.5 0-17.189-12.38-31.398-30.25-31.398-17.88 0-30.827 14.209-30.827 31.398s12.377 31.169 30.827 31.169zm-14.78-37.242c1.71-7.105 7.22-12.032 14.55-12.032 7.56 0 13.18 5.386 14.9 12.032z" fill="#fff"/><path d="m700.914 422.931h216.75v26.2019h-216.75z" fill="#f30058"/><path d="m308.197 253.261 90.394 52.189v104.377l-90.394 52.189-90.393-52.189v-104.377z" fill="#fff"/><path d="m308.198 266.566 78.87 45.536v91.073l-78.87 45.536-78.871-45.536v-91.073z" fill="#ff9a9a"/><path d="m308.197 287.659 60.604 34.99v69.979l-60.604 34.99-60.604-34.99v-69.979z" fill="#f15151"/><path d="m308.197 330.19 42.188 24.357v48.714l-42.188 24.357-42.187-24.357v-48.714z" fill="#d31d2c"/><path clip-rule="evenodd" d="m308.592 379.035 41.791-24.486-.712-.41-41.075 23.945-42.074-24.35-.784.47z" fill="#fff" fill-opacity=".1" fill-rule="evenodd"/><path d="m308.653 349.277v-95.994l-90.942 52.488z" stroke="#fff" stroke-opacity=".1" stroke-width=".822592"/><path d="m308.653 349.277v-95.994l90.942 52.488z" stroke="#fff" stroke-opacity=".1" stroke-width=".822592"/><path d="m308.653 348.623v113.679" stroke="#fff" stroke-opacity=".2" stroke-width=".822592"/><g fill="#fff"><path d="m703.709 479.291h1.82v-7.462h2.6v-1.638h-7.02v1.638h2.6zm4.885 0h1.755v-3.705c0-1.17.663-1.677 1.404-1.677.871 0 1.456.507 1.456 1.677v3.705h1.755v-4.134c0-1.703-1.118-2.782-2.574-2.782-1.014 0-1.677.364-2.041 1.092v-3.666h-1.755zm7.351 0h1.755v-6.76h-1.755zm-.182-8.359c0 .572.455 1.04 1.053 1.04.611 0 1.053-.455 1.053-1.04 0-.559-.442-1.027-1.053-1.027-.598 0-1.053.468-1.053 1.027zm5.289 8.528c1.495 0 2.626-.936 2.626-2.184 0-1.014-.455-1.742-2.418-2.249-.806-.208-.91-.416-.91-.65 0-.416.364-.598.845-.598.455 0 .871.208 1.196.728l1.274-.975c-.689-.897-1.417-1.17-2.509-1.17-1.586 0-2.522.884-2.522 2.067 0 .858.273 1.677 2.08 2.106 1.066.247 1.235.442 1.235.793 0 .403-.338.702-.936.702-.572 0-1.092-.273-1.586-.832l-1.183 1.079c.741.793 1.664 1.183 2.808 1.183zm5.443-.169h1.755v-3.458c0-1.131.78-1.807 1.794-1.807h.247v-1.651c-1.17-.065-1.859.468-2.093 1.443v-1.287h-1.703zm7.286.169c1.339 0 2.47-.598 3.016-1.443l-1.365-1.027c-.312.52-.897.91-1.651.91-.884 0-1.482-.559-1.677-1.352h5.057c.039-.221.052-.429.052-.624 0-1.95-1.404-3.562-3.432-3.562s-3.497 1.612-3.497 3.562 1.404 3.536 3.497 3.536zm-1.677-4.225c.195-.806.819-1.365 1.651-1.365.858 0 1.495.611 1.69 1.365zm5.88 6.656h1.755v-3.601c.364.702.975 1.17 2.132 1.17 1.859 0 3.341-1.573 3.341-3.523s-1.482-3.549-3.341-3.549c-1.183 0-1.794.494-2.158 1.235v-1.092h-1.729zm1.703-5.954c0-1.053.741-1.963 1.898-1.963 1.118 0 1.872.897 1.872 1.95 0 1.027-.754 1.95-1.872 1.95-1.157 0-1.898-.884-1.898-1.937zm9.585 3.523c2.093 0 3.601-1.586 3.601-3.536s-1.508-3.549-3.601-3.549-3.601 1.599-3.601 3.549 1.508 3.536 3.601 3.536zm-1.846-3.536c0-1.053.728-1.95 1.846-1.95s1.846.897 1.846 1.95-.728 1.937-1.846 1.937-1.846-.884-1.846-1.937zm8.398 3.536c1.495 0 2.626-.936 2.626-2.184 0-1.014-.455-1.742-2.418-2.249-.806-.208-.91-.416-.91-.65 0-.416.364-.598.845-.598.455 0 .871.208 1.196.728l1.274-.975c-.689-.897-1.417-1.17-2.509-1.17-1.586 0-2.522.884-2.522 2.067 0 .858.273 1.677 2.08 2.106 1.066.247 1.235.442 1.235.793 0 .403-.338.702-.936.702-.572 0-1.092-.273-1.586-.832l-1.183 1.079c.741.793 1.664 1.183 2.808 1.183zm3.31-.169h1.755v-6.76h-1.755zm-.182-8.359c0 .572.455 1.04 1.053 1.04.611 0 1.053-.455 1.053-1.04 0-.559-.442-1.027-1.053-1.027-.598 0-1.053.468-1.053 1.027zm5.536 8.359h.962v-1.56h-.728c-.338 0-.546-.195-.546-.624v-3.081h1.43v-1.495h-1.43v-1.547l-1.755.182v1.365h-.949v1.495h.949v3.172c0 1.469.728 2.093 2.067 2.093zm4.868.169c2.093 0 3.601-1.586 3.601-3.536s-1.508-3.549-3.601-3.549-3.601 1.599-3.601 3.549 1.508 3.536 3.601 3.536zm-1.846-3.536c0-1.053.728-1.95 1.846-1.95s1.846.897 1.846 1.95-.728 1.937-1.846 1.937-1.846-.884-1.846-1.937zm6.224 3.367h1.755v-3.458c0-1.131.78-1.807 1.794-1.807h.247v-1.651c-1.17-.065-1.859.468-2.093 1.443v-1.287h-1.703zm5.234 2.717c1.586 0 2.431-.923 3.003-2.288l2.99-7.189h-2.08l-1.313 3.861c-.117.325-.221.728-.286 1.079-.065-.351-.169-.754-.286-1.079l-1.313-3.861h-2.119l2.678 6.448-.091.286c-.195.598-.624 1.027-1.3 1.027-.286 0-.533-.026-.793-.091l-.26 1.677c.351.104.819.13 1.17.13zm8.451-2.717h1.755v-6.76h-1.755zm-.182-8.359c0 .572.455 1.04 1.053 1.04.611 0 1.053-.455 1.053-1.04 0-.559-.442-1.027-1.053-1.027-.598 0-1.053.468-1.053 1.027zm5.289 8.528c1.495 0 2.626-.936 2.626-2.184 0-1.014-.455-1.742-2.418-2.249-.806-.208-.91-.416-.91-.65 0-.416.364-.598.845-.598.455 0 .871.208 1.196.728l1.274-.975c-.689-.897-1.417-1.17-2.509-1.17-1.586 0-2.522.884-2.522 2.067 0 .858.273 1.677 2.08 2.106 1.066.247 1.235.442 1.235.793 0 .403-.338.702-.936.702-.572 0-1.092-.273-1.586-.832l-1.183 1.079c.741.793 1.664 1.183 2.808 1.183zm6.86-.169h2.015l1.014-3.848c.091-.325.156-.676.208-1.014.052.338.13.689.234 1.014l1.105 3.848h1.898l2.106-6.76h-1.911l-.936 3.835c-.078.325-.156.689-.208 1.027-.052-.338-.13-.715-.221-1.04l-1.053-3.822h-2.015l-.988 3.822c-.091.325-.169.702-.221 1.04-.052-.338-.13-.702-.208-1.027l-.871-3.835h-2.054zm8.93 0h1.755v-3.705c0-1.17.663-1.677 1.404-1.677.871 0 1.456.507 1.456 1.677v3.705h1.755v-4.134c0-1.703-1.118-2.782-2.574-2.782-1.014 0-1.677.364-2.041 1.092v-3.666h-1.755zm10.587.169c1.339 0 2.47-.598 3.016-1.443l-1.365-1.027c-.312.52-.897.91-1.651.91-.884 0-1.482-.559-1.677-1.352h5.057c.039-.221.052-.429.052-.624 0-1.95-1.404-3.562-3.432-3.562s-3.497 1.612-3.497 3.562 1.404 3.536 3.497 3.536zm-1.677-4.225c.195-.806.819-1.365 1.651-1.365.858 0 1.495.611 1.69 1.365zm5.88 4.056h1.755v-3.458c0-1.131.78-1.807 1.794-1.807h.247v-1.651c-1.17-.065-1.859.468-2.093 1.443v-1.287h-1.703zm7.287.169c1.339 0 2.47-.598 3.016-1.443l-1.365-1.027c-.312.52-.897.91-1.651.91-.884 0-1.482-.559-1.677-1.352h5.057c.039-.221.052-.429.052-.624 0-1.95-1.404-3.562-3.432-3.562s-3.497 1.612-3.497 3.562 1.404 3.536 3.497 3.536zm-1.677-4.225c.195-.806.819-1.365 1.651-1.365.858 0 1.495.611 1.69 1.365zm7.898 4.056h1.755v-3.705c0-1.17.663-1.677 1.404-1.677.871 0 1.456.507 1.456 1.677v3.705h1.755v-4.134c0-1.703-1.118-2.782-2.574-2.782-1.014 0-1.677.364-2.041 1.092v-3.666h-1.755zm10.431.169c1.209 0 1.82-.507 2.184-1.274v1.105h1.703v-6.76h-1.742v1.066c-.364-.728-.975-1.209-2.145-1.209-1.859 0-3.341 1.599-3.341 3.549s1.482 3.523 3.341 3.523zm-1.586-3.536c0-1.053.754-1.95 1.872-1.95 1.157 0 1.898.91 1.898 1.963s-.741 1.937-1.898 1.937c-1.118 0-1.872-.923-1.872-1.95zm8.622 3.367h1.768l2.808-6.76h-2.041l-1.352 3.861c-.117.325-.221.728-.286 1.079-.065-.351-.169-.754-.286-1.079l-1.352-3.861h-2.08zm7.707.169c1.339 0 2.47-.598 3.016-1.443l-1.365-1.027c-.312.52-.897.91-1.651.91-.884 0-1.482-.559-1.677-1.352h5.057c.039-.221.052-.429.052-.624 0-1.95-1.404-3.562-3.432-3.562s-3.497 1.612-3.497 3.562 1.404 3.536 3.497 3.536zm-1.677-4.225c.195-.806.819-1.365 1.651-1.365.858 0 1.495.611 1.69 1.365zm8.392-3.159v.455h-.949v1.495h.949v5.265h1.755v-5.265h1.378v-1.495h-1.378v-.429c0-.533.247-.806.767-.806h.455v-1.495h-.728c-1.365 0-2.249.91-2.249 2.275zm6.23 7.371c1.053 0 1.664-.39 1.989-1.17v1.014h1.703v-6.76h-1.755v3.705c0 1.17-.663 1.677-1.404 1.677-.871 0-1.352-.507-1.352-1.677v-3.705h-1.755v4.134c0 1.703 1.118 2.782 2.574 2.782zm4.727-.156h1.755v-3.705c0-1.17.663-1.677 1.404-1.677.871 0 1.456.507 1.456 1.677v3.705h1.755v-4.134c0-1.703-1.118-2.782-2.574-2.782-1.04 0-1.716.39-2.067 1.144v-.988h-1.729zm10.901 0h2.015l1.014-3.848c.091-.325.156-.676.208-1.014.052.338.13.689.234 1.014l1.105 3.848h1.898l2.106-6.76h-1.911l-.936 3.835c-.078.325-.156.689-.208 1.027-.052-.338-.13-.715-.221-1.04l-1.053-3.822h-2.015l-.988 3.822c-.091.325-.169.702-.221 1.04-.052-.338-.13-.702-.208-1.027l-.871-3.835h-2.054zm8.93 0h1.755v-6.76h-1.755zm-.182-8.359c0 .572.455 1.04 1.053 1.04.611 0 1.053-.455 1.053-1.04 0-.559-.442-1.027-1.053-1.027-.598 0-1.053.468-1.053 1.027zm5.535 8.359h.962v-1.56h-.728c-.338 0-.546-.195-.546-.624v-3.081h1.43v-1.495h-1.43v-1.547l-1.755.182v1.365h-.949v1.495h.949v3.172c0 1.469.728 2.093 2.067 2.093zm1.51 0h1.924l6.292-9.49h-1.95zm8.929 0h1.755v-3.705c0-1.17.663-1.677 1.404-1.677.871 0 1.456.507 1.456 1.677v3.705h1.755v-4.134c0-1.703-1.118-2.782-2.574-2.782-1.014 0-1.677.364-2.041 1.092v-3.666h-1.755zm7.156 0h1.924l6.292-9.49h-1.95zm9.992.169c.676 0 1.157-.52 1.157-1.144 0-.611-.481-1.131-1.157-1.131s-1.17.52-1.17 1.131c0 .624.494 1.144 1.17 1.144zm1.764-.169h1.924l6.292-9.49h-1.95zm12.579 0h1.534l.624-2.483h2.119v-1.391h-1.794l.494-1.95h1.495v-1.391h-1.118l.572-2.275h-1.56l-.559 2.275h-1.703l.572-2.275h-1.56l-.572 2.275h-2.028v1.391h1.703l-.481 1.95h-1.417v1.391h1.04l-.611 2.483h1.534l.624-2.483h1.716zm-.806-3.874.494-1.95h1.833l-.494 1.95zm5.962 3.874h1.924l6.292-9.49h-1.95zm-250.075 15.09h1.469l.637-1.027h3.614v-1.43h-2.808l.975-1.469h1.833v-1.43h-.936l.637-1.027h-1.456l-.637 1.027h-3.484v1.43h2.665l-.975 1.469h-1.69v1.43h.793zm22.22.91h1.924l6.292-9.49h-1.95zm8.861 0h1.924l6.292-9.49h-1.95zm8.861 0h1.924l6.292-9.49h-1.95zm8.862 0h1.924l6.292-9.49h-1.95zm8.861 0h1.924l6.292-9.49h-1.95zm8.861 0h1.924l6.292-9.49h-1.95zm8.862 0h1.924l6.292-9.49h-1.95zm8.861 0h1.924l6.292-9.49h-1.95zm8.861 0h1.924l6.292-9.49h-1.95zm8.862 0h1.924l6.292-9.49h-1.95zm8.861 0h1.924l6.292-9.49h-1.95zm8.861 0h1.924l6.292-9.49h-1.95zm8.862 0h1.924l6.292-9.49h-1.95zm8.861 0h1.924l6.292-9.49h-1.95zm8.861 0h1.924l6.292-9.49h-1.95zm8.862 0h1.924l6.292-9.49h-1.95zm8.861 0h1.924l6.292-9.49h-1.95zm8.861 0h1.924l6.292-9.49h-1.95zm8.862 0h1.924l6.292-9.49h-1.95zm8.861 0h1.924l6.292-9.49h-1.95zm8.861 0h1.924l6.292-9.49h-1.95zm8.862 0h1.924l6.292-9.49h-1.95zm8.861 0h1.924l6.292-9.49h-1.95zm8.861 0h1.924l6.292-9.49h-1.95zm8.862 0h1.924l6.292-9.49h-1.95zm8.861 0h1.924l6.292-9.49h-1.95zm8.861 0h1.924l6.292-9.49h-1.95zm8.862 0h1.924l6.292-9.49h-1.95zm8.861 0h1.924l6.292-9.49h-1.95zm8.861 0h1.924l6.292-9.49h-1.95zm8.862 0h1.924l6.292-9.49h-1.95zm8.861 0h1.924l6.29-9.49h-1.95zm8.864 0h1.92l6.29-9.49h-1.95zm8.86 0h1.92l6.29-9.49h-1.95zm8.86 0h1.92l6.3-9.49h-1.95zm8.86 0h1.93l6.29-9.49h-1.95zm8.86 0h1.93l6.29-9.49h-1.95zm8.86 0h1.93l6.29-9.49h-1.95zm8.87 0h1.92l6.29-9.49h-1.95zm8.86 0h1.92l6.29-9.49h-1.95zm8.86 0h1.92l6.29-9.49h-1.95zm8.86 0h1.92l6.3-9.49h-1.95zm8.86 0h1.92l6.3-9.49h-1.95zm8.86 0h1.93l6.29-9.49h-1.95zm-403.671 16h1.924l6.292-9.49h-1.95zm8.861 0h1.924l6.292-9.49h-1.95zm8.862 0h1.924l6.292-9.49h-1.95zm8.861 0h1.924l6.292-9.49h-1.95zm8.861 0h1.924l6.292-9.49h-1.95zm8.862 0h1.924l6.292-9.49h-1.95zm8.861 0h1.924l6.292-9.49h-1.95zm8.861 0h1.924l6.292-9.49h-1.95zm8.862 0h1.924l6.292-9.49h-1.95zm8.861 0h1.924l6.292-9.49h-1.95zm8.861 0h1.924l6.292-9.49h-1.95zm8.862 0h1.924l6.292-9.49h-1.95zm8.861 0h1.924l6.292-9.49h-1.95zm8.861 0h1.924l6.292-9.49h-1.95zm8.862 0h1.924l6.292-9.49h-1.95zm8.861 0h1.924l6.292-9.49h-1.95zm8.861 0h1.924l6.292-9.49h-1.95zm8.862 0h1.924l6.292-9.49h-1.95zm8.861 0h1.924l6.292-9.49h-1.95zm8.861 0h1.924l6.292-9.49h-1.95zm8.862 0h1.924l6.292-9.49h-1.95zm8.861 0h1.924l6.292-9.49h-1.95zm8.861 0h1.924l6.292-9.49h-1.95zm8.862 0h1.924l6.292-9.49h-1.95zm8.861 0h1.924l6.292-9.49h-1.95zm8.861 0h1.924l6.292-9.49h-1.95zm8.862 0h1.924l6.292-9.49h-1.95zm8.861 0h1.924l6.292-9.49h-1.95zm8.861 0h1.924l6.292-9.49h-1.95zm8.862 0h1.924l6.292-9.49h-1.95zm8.861 0h1.924l6.292-9.49h-1.95zm8.861 0h1.924l6.292-9.49h-1.95zm8.862 0h1.924l6.292-9.49h-1.95zm8.861 0h1.924l6.293-9.49h-1.951zm8.857 0h1.93l6.29-9.49h-1.95zm8.87 0h1.92l6.29-9.49h-1.95zm13.12 0h1.93l6.29-9.49h-1.95zm8.86 0h1.93l6.29-9.49h-1.95zm11 0h1.92l6.29-9.49h-1.95zm10.99 0h1.93l6.29-9.49h-1.95zm8.86 0h1.93l6.29-9.49h-1.95zm8.86 0h1.93l6.29-9.49h-1.95zm8.87 0h1.92l6.29-9.49h-1.95zm8.86 0h1.92l6.29-9.49h-1.95zm8.86 0h1.92l6.29-9.49h-1.95zm8.86 0h1.92l6.3-9.49h-1.95zm8.86 0h1.93l6.29-9.49h-1.95zm8.86 0h1.93l6.29-9.49h-1.95zm8.86 0h1.93l6.29-9.49h-1.95zm8.87 0h1.92l6.29-9.49h-1.95zm8.86 0h1.92l6.29-9.49h-1.95zm8.86 0h1.92l6.29-9.49h-1.95zm8.86 0h1.92l6.3-9.49h-1.95zm-469.321 16h1.924l6.292-9.49h-1.95zm8.861 0h1.924l6.292-9.49h-1.95zm8.862 0h1.924l6.292-9.49h-1.95zm8.861 0h1.924l6.292-9.49h-1.95zm8.861 0h1.924l6.292-9.49h-1.95zm8.862 0h1.924l6.292-9.49h-1.95zm8.861 0h1.924l6.292-9.49h-1.95zm8.861 0h1.924l6.292-9.49h-1.95zm8.862 0h1.924l6.292-9.49h-1.95zm8.861 0h1.924l6.292-9.49h-1.95zm8.861 0h1.924l6.292-9.49h-1.95zm8.862 0h1.924l6.292-9.49h-1.95zm8.861 0h1.924l6.292-9.49h-1.95zm8.861 0h1.924l6.292-9.49h-1.95zm8.862 0h1.924l6.292-9.49h-1.95zm8.861 0h1.924l6.292-9.49h-1.95zm8.861 0h1.924l6.292-9.49h-1.95zm8.862 0h1.924l6.292-9.49h-1.95zm8.861 0h1.924l6.292-9.49h-1.95zm8.861 0h1.924l6.292-9.49h-1.95zm8.862 0h1.924l6.292-9.49h-1.95zm8.861 0h1.924l6.292-9.49h-1.95zm8.861 0h1.924l6.292-9.49h-1.95zm8.862 0h1.924l6.292-9.49h-1.95zm8.861 0h1.924l6.292-9.49h-1.95zm8.861 0h1.924l6.292-9.49h-1.95zm8.862 0h1.924l6.292-9.49h-1.95zm8.861 0h1.924l6.292-9.49h-1.95zm8.861 0h1.924l6.292-9.49h-1.95zm8.862 0h1.924l6.292-9.49h-1.95zm8.861 0h1.924l6.292-9.49h-1.95zm8.861 0h1.924l6.292-9.49h-1.95zm8.862 0h1.924l6.292-9.49h-1.95zm8.861 0h1.924l6.293-9.49h-1.951zm8.857 0h1.93l6.29-9.49h-1.95zm8.87 0h1.92l6.29-9.49h-1.95zm8.86 0h1.92l6.29-9.49h-1.95zm8.86 0h1.92l6.29-9.49h-1.95zm8.86 0h1.92l6.3-9.49h-1.95zm8.86 0h1.92l6.3-9.49h-1.95zm8.86 0h1.93l6.29-9.49h-1.95zm8.86 0h1.93l6.29-9.49h-1.95zm8.86 0h1.93l6.29-9.49h-1.95zm8.87 0h1.92l6.29-9.49h-1.95zm8.86 0h1.92l6.29-9.49h-1.95zm8.86 0h1.92l6.29-9.49h-1.95zm8.86 0h1.92l6.3-9.49h-1.95zm8.86 0h1.93l6.29-9.49h-1.95zm8.86 0h1.93l6.29-9.49h-1.95zm8.86 0h1.93l6.29-9.49h-1.95zm8.87 0h1.92l6.29-9.49h-1.95zm8.86 0h1.92l6.29-9.49h-1.95zm8.86 0h1.92l6.29-9.49h-1.95zm8.86 0h1.92l6.3-9.49h-1.95zm8.86 0h1.92l6.3-9.49h-1.95zm8.86 0h1.93l6.29-9.49h-1.95zm-487.371 16h1.924l6.292-9.49h-1.95zm8.861 0h1.924l6.292-9.49h-1.95zm8.862 0h1.924l6.292-9.49h-1.95zm8.861 0h1.924l6.292-9.49h-1.95zm8.861 0h1.924l6.292-9.49h-1.95zm8.862 0h1.924l6.292-9.49h-1.95zm8.861 0h1.924l6.292-9.49h-1.95zm8.861 0h1.924l6.292-9.49h-1.95zm8.862 0h1.924l6.292-9.49h-1.95zm8.861 0h1.924l6.292-9.49h-1.95zm8.861 0h1.924l6.292-9.49h-1.95zm8.862 0h1.924l6.292-9.49h-1.95zm8.861 0h1.924l6.292-9.49h-1.95zm8.861 0h1.924l6.292-9.49h-1.95zm8.862 0h1.924l6.292-9.49h-1.95zm8.861 0h1.924l6.292-9.49h-1.95zm8.861 0h1.924l6.292-9.49h-1.95zm8.862 0h1.924l6.292-9.49h-1.95zm8.861 0h1.924l6.292-9.49h-1.95zm8.861 0h1.924l6.292-9.49h-1.95zm8.862 0h1.924l6.292-9.49h-1.95zm8.861 0h1.924l6.292-9.49h-1.95zm8.861 0h1.924l6.292-9.49h-1.95zm8.862 0h1.924l6.292-9.49h-1.95zm8.861 0h1.924l6.292-9.49h-1.95zm8.861 0h1.924l6.292-9.49h-1.95zm8.862 0h1.924l6.292-9.49h-1.95zm8.861 0h1.924l6.292-9.49h-1.95zm8.861 0h1.924l6.292-9.49h-1.95zm8.862 0h1.924l6.292-9.49h-1.95zm8.861 0h1.924l6.292-9.49h-1.95zm8.861 0h1.924l6.292-9.49h-1.95zm8.862 0h1.924l6.292-9.49h-1.95zm8.861 0h1.924l6.293-9.49h-1.951zm8.857 0h1.93l6.29-9.49h-1.95zm-301.281 16h1.924l6.292-9.49h-1.95zm8.861 0h1.924l6.292-9.49h-1.95zm8.862 0h1.924l6.292-9.49h-1.95zm8.861 0h1.924l6.292-9.49h-1.95zm8.861 0h1.924l6.292-9.49h-1.95zm8.862 0h1.924l6.292-9.49h-1.95zm8.861 0h1.924l6.292-9.49h-1.95zm8.861 0h1.924l6.292-9.49h-1.95zm8.862 0h1.924l6.292-9.49h-1.95zm8.861 0h1.924l6.292-9.49h-1.95zm8.861 0h1.924l6.292-9.49h-1.95zm8.862 0h1.924l6.292-9.49h-1.95zm8.861 0h1.924l6.292-9.49h-1.95zm10.994 0h1.924l6.292-9.49h-1.95zm8.861 0h1.924l6.292-9.49h-1.95zm8.862 0h1.924l6.292-9.49h-1.95zm8.861 0h1.924l6.292-9.49h-1.95zm8.861 0h1.924l6.292-9.49h-1.95zm8.862 0h1.924l6.292-9.49h-1.95zm8.861 0h1.924l6.292-9.49h-1.95zm8.861 0h1.924l6.292-9.49h-1.95zm8.862 0h1.924l6.292-9.49h-1.95zm10.994 0h1.924l6.292-9.49h-1.95zm8.861 0h1.924l6.292-9.49h-1.95zm8.862 0h1.924l6.292-9.49h-1.95zm8.861 0h1.924l6.292-9.49h-1.95zm8.861 0h1.924l6.292-9.49h-1.95zm8.862 0h1.924l6.292-9.49h-1.95zm8.861 0h1.924l6.292-9.49h-1.95zm8.861 0h1.924l6.292-9.49h-1.95zm8.862 0h1.924l6.292-9.49h-1.95zm8.861 0h1.924l6.292-9.49h-1.95zm8.861 0h1.924l6.292-9.49h-1.95zm8.862 0h1.924l6.287-9.49h-1.95zm8.861 0h1.92l6.3-9.49h-1.95zm8.86 0h1.93l6.29-9.49h-1.95zm8.86 0h1.93l6.29-9.49h-1.95zm8.86 0h1.93l6.29-9.49h-1.95zm8.87 0h1.92l6.29-9.49h-1.95zm8.86 0h1.92l6.29-9.49h-1.95zm8.86 0h1.92l6.29-9.49h-1.95zm8.86 0h1.92l6.3-9.49h-1.95zm8.86 0h1.92l6.3-9.49h-1.95zm8.86 0h1.93l6.29-9.49h-1.95zm8.86 0h1.93l6.29-9.49h-1.95zm8.86 0h1.93l6.29-9.49h-1.95zm8.87 0h1.92l6.29-9.49h-1.95zm-411.891 16h1.924l6.292-9.49h-1.95zm8.861 0h1.924l6.292-9.49h-1.95zm8.862 0h1.924l6.292-9.49h-1.95zm8.861 0h1.924l6.292-9.49h-1.95zm8.861 0h1.924l6.292-9.49h-1.95zm8.862 0h1.924l6.292-9.49h-1.95zm8.861 0h1.924l6.292-9.49h-1.95zm8.861 0h1.924l6.292-9.49h-1.95zm8.862 0h1.924l6.292-9.49h-1.95zm8.861 0h1.924l6.292-9.49h-1.95zm8.861 0h1.924l6.292-9.49h-1.95zm8.862 0h1.924l6.292-9.49h-1.95zm8.861 0h1.924l6.292-9.49h-1.95zm8.861 0h1.924l6.292-9.49h-1.95zm8.862 0h1.924l6.292-9.49h-1.95zm8.861 0h1.924l6.292-9.49h-1.95zm8.861 0h1.924l6.292-9.49h-1.95zm8.862 0h1.924l6.292-9.49h-1.95zm8.861 0h1.924l6.292-9.49h-1.95zm8.861 0h1.924l6.292-9.49h-1.95zm8.862 0h1.924l6.292-9.49h-1.95zm8.861 0h1.924l6.292-9.49h-1.95zm8.861 0h1.924l6.292-9.49h-1.95zm8.862 0h1.924l6.292-9.49h-1.95zm8.861 0h1.924l6.292-9.49h-1.95zm8.861 0h1.924l6.292-9.49h-1.95zm8.862 0h1.924l6.292-9.49h-1.95zm8.861 0h1.924l6.292-9.49h-1.95zm8.861 0h1.924l6.292-9.49h-1.95zm8.862 0h1.924l6.292-9.49h-1.95zm8.861 0h1.924l6.292-9.49h-1.95zm8.861 0h1.924l6.292-9.49h-1.95zm8.862 0h1.924l6.292-9.49h-1.95zm8.861 0h1.924l6.293-9.49h-1.951zm8.857 0h1.93l6.29-9.49h-1.95zm8.87 0h1.92l6.29-9.49h-1.95zm8.86 0h1.92l6.29-9.49h-1.95zm8.86 0h1.92l6.29-9.49h-1.95zm8.86 0h1.92l6.3-9.49h-1.95zm8.86 0h1.92l6.3-9.49h-1.95zm8.86 0h1.93l6.29-9.49h-1.95zm8.86 0h1.93l6.29-9.49h-1.95zm8.86 0h1.93l6.29-9.49h-1.95zm8.87 0h1.92l6.29-9.49h-1.95zm8.86 0h1.92l6.29-9.49h-1.95zm8.86 0h1.92l6.29-9.49h-1.95zm8.86 0h1.92l6.3-9.49h-1.95zm8.86 0h1.93l6.29-9.49h-1.95zm8.86 0h1.93l6.29-9.49h-1.95zm8.86 0h1.93l6.29-9.49h-1.95zm8.87 0h1.92l6.29-9.49h-1.95zm8.86 0h1.92l6.29-9.49h-1.95zm8.86 0h1.92l6.29-9.49h-1.95zm8.86 0h1.92l6.3-9.49h-1.95zm9.99.169c.68 0 1.16-.52 1.16-1.144 0-.611-.48-1.131-1.16-1.131-.67 0-1.17.52-1.17 1.131 0 .624.5 1.144 1.17 1.144zm-479.316 15.831h3.25c3.146 0 4.667-1.937 4.667-4.537 0-2.613-1.521-4.563-4.667-4.563h-3.25zm1.82-1.638v-5.824h1.209c2.158 0 3.003 1.274 3.003 2.925s-.845 2.899-3.003 2.899zm5.522 1.638h1.976l.624-1.729h3.796l.624 1.729h1.976l-3.705-9.1h-1.573zm3.198-3.302.975-2.483c.13-.325.234-.689.325-1.04.078.351.195.702.325 1.04l.975 2.483zm6.075 3.302h1.755v-3.458c0-1.131.78-1.807 1.794-1.807h.247v-1.651c-1.17-.065-1.859.468-2.093 1.443v-1.287h-1.703zm8.852 0h2.327l-3.198-3.614 3.185-3.146h-2.496l-2.535 2.73v-5.46h-1.755v9.49h1.755v-3.211zm2.777 0h1.755v-3.705c0-1.17.663-1.677 1.404-1.677.871 0 1.456.507 1.456 1.677v3.705h1.755v-4.134c0-1.703-1.118-2.782-2.574-2.782-1.04 0-1.716.39-2.067 1.144v-.988h-1.729zm27.387.169c1.495 0 2.626-.936 2.626-2.184 0-1.014-.455-1.742-2.418-2.249-.806-.208-.91-.416-.91-.65 0-.416.364-.598.845-.598.455 0 .871.208 1.196.728l1.274-.975c-.689-.897-1.417-1.17-2.509-1.17-1.586 0-2.522.884-2.522 2.067 0 .858.273 1.677 2.08 2.106 1.066.247 1.235.442 1.235.793 0 .403-.338.702-.936.702-.572 0-1.092-.273-1.586-.832l-1.183 1.079c.741.793 1.664 1.183 2.808 1.183zm3.31 2.431h1.755v-3.601c.364.702.975 1.17 2.132 1.17 1.859 0 3.341-1.573 3.341-3.523s-1.482-3.549-3.341-3.549c-1.183 0-1.794.494-2.158 1.235v-1.092h-1.729zm1.703-5.954c0-1.053.741-1.963 1.898-1.963 1.118 0 1.872.897 1.872 1.95 0 1.027-.754 1.95-1.872 1.95-1.157 0-1.898-.884-1.898-1.937zm6.308 3.354h1.755v-6.76h-1.755zm-.182-8.359c0 .572.455 1.04 1.053 1.04.611 0 1.053-.455 1.053-1.04 0-.559-.442-1.027-1.053-1.027-.598 0-1.053.468-1.053 1.027zm2.975 8.359h1.755v-9.49h-1.755zm2.793 0h1.755v-9.49h-1.755zm5.107.169c1.495 0 2.626-.936 2.626-2.184 0-1.014-.455-1.742-2.418-2.249-.806-.208-.91-.416-.91-.65 0-.416.364-.598.845-.598.455 0 .871.208 1.196.728l1.274-.975c-.689-.897-1.417-1.17-2.509-1.17-1.586 0-2.522.884-2.522 2.067 0 .858.273 1.677 2.08 2.106 1.066.247 1.235.442 1.235.793 0 .403-.338.702-.936.702-.572 0-1.092-.273-1.586-.832l-1.183 1.079c.741.793 1.664 1.183 2.808 1.183zm8.67 0c2.093 0 3.601-1.586 3.601-3.536s-1.508-3.549-3.601-3.549-3.601 1.599-3.601 3.549 1.508 3.536 3.601 3.536zm-1.846-3.536c0-1.053.728-1.95 1.846-1.95s1.846.897 1.846 1.95-.728 1.937-1.846 1.937-1.846-.884-1.846-1.937zm7.923 3.367h1.768l2.808-6.76h-2.041l-1.352 3.861c-.117.325-.221.728-.286 1.079-.065-.351-.169-.754-.286-1.079l-1.352-3.861h-2.08zm7.707.169c1.339 0 2.47-.598 3.016-1.443l-1.365-1.027c-.312.52-.897.91-1.651.91-.884 0-1.482-.559-1.677-1.352h5.057c.039-.221.052-.429.052-.624 0-1.95-1.404-3.562-3.432-3.562s-3.497 1.612-3.497 3.562 1.404 3.536 3.497 3.536zm-1.677-4.225c.195-.806.819-1.365 1.651-1.365.858 0 1.495.611 1.69 1.365zm5.88 4.056h1.755v-3.458c0-1.131.78-1.807 1.794-1.807h.247v-1.651c-1.17-.065-1.859.468-2.093 1.443v-1.287h-1.703zm9.073 0h.962v-1.56h-.728c-.338 0-.546-.195-.546-.624v-3.081h1.43v-1.495h-1.43v-1.547l-1.755.182v1.365h-.949v1.495h.949v3.172c0 1.469.728 2.093 2.067 2.093zm1.705 0h1.755v-3.705c0-1.17.663-1.677 1.404-1.677.871 0 1.456.507 1.456 1.677v3.705h1.755v-4.134c0-1.703-1.118-2.782-2.574-2.782-1.014 0-1.677.364-2.041 1.092v-3.666h-1.755zm10.588.169c1.339 0 2.47-.598 3.016-1.443l-1.365-1.027c-.312.52-.897.91-1.651.91-.884 0-1.482-.559-1.677-1.352h5.057c.039-.221.052-.429.052-.624 0-1.95-1.404-3.562-3.432-3.562s-3.497 1.612-3.497 3.562 1.404 3.536 3.497 3.536zm-1.677-4.225c.195-.806.819-1.365 1.651-1.365.858 0 1.495.611 1.69 1.365zm7.898 4.056h1.755v-3.705c0-1.17.663-1.677 1.404-1.677.871 0 1.456.507 1.456 1.677v3.705h1.755v-4.134c0-1.703-1.118-2.782-2.574-2.782-1.014 0-1.677.364-2.041 1.092v-3.666h-1.755zm10.691.169c2.093 0 3.601-1.586 3.601-3.536s-1.508-3.549-3.601-3.549-3.601 1.599-3.601 3.549 1.508 3.536 3.601 3.536zm-1.846-3.536c0-1.053.728-1.95 1.846-1.95s1.846.897 1.846 1.95-.728 1.937-1.846 1.937-1.846-.884-1.846-1.937zm6.224 3.367h1.755v-3.458c0-1.131.78-1.807 1.794-1.807h.247v-1.651c-1.17-.065-1.859.468-2.093 1.443v-1.287h-1.703zm4.38 0h1.755v-6.76h-1.755zm-.182-8.359c0 .572.455 1.04 1.053 1.04.611 0 1.053-.455 1.053-1.04 0-.559-.442-1.027-1.053-1.027-.598 0-1.053.468-1.053 1.027zm2.637 8.359h5.902v-1.456h-3.172c.091-.117.182-.221.247-.338l2.99-4.771v-.195h-5.824v1.456h3.133c-.117.143-.221.273-.312.416l-2.964 4.693zm9.531.169c2.093 0 3.601-1.586 3.601-3.536s-1.508-3.549-3.601-3.549-3.601 1.599-3.601 3.549 1.508 3.536 3.601 3.536zm-1.846-3.536c0-1.053.728-1.95 1.846-1.95s1.846.897 1.846 1.95-.728 1.937-1.846 1.937-1.846-.884-1.846-1.937zm6.224 3.367h1.755v-3.705c0-1.17.663-1.677 1.404-1.677.871 0 1.456.507 1.456 1.677v3.705h1.755v-4.134c0-1.703-1.118-2.782-2.574-2.782-1.04 0-1.716.39-2.067 1.144v-.988h-1.729zm7.156 0h1.924l6.292-9.49h-1.95zm8.861 0h1.924l6.292-9.49h-1.95zm8.861 0h1.924l6.292-9.49h-1.95zm9.993.169c.676 0 1.157-.52 1.157-1.144 0-.611-.481-1.131-1.157-1.131s-1.17.52-1.17 1.131c0 .624.494 1.144 1.17 1.144z"/><path d="m142.088 702.375-2.088 20.243h4.281l.996-9.663c.43-.27 1.411-.701 2.454-.701 1.151 0 1.429.674 1.326 1.673l-.897 8.691h4.281l.963-9.339c.268-2.591-.575-4.534-4.214-4.534-1.471 0-2.581.378-3.567.864l.746-7.234z"/><path d="m165.965 717.297c.784-4.237.828-8.556-4.895-8.556-4.146 0-6.493 2.267-6.994 7.125-.501 4.859 1.405 7.126 5.818 7.126 1.605 0 3.508-.297 5.126-.945l.348-3.374c-1.013.486-2.553.891-4.558.891-2.087 0-2.943-.513-2.655-2.267zm-5.176-5.317c1.632 0 1.83 1.187 1.436 2.672h-3.797c.175-1.7.917-2.672 2.361-2.672z"/><path d="m168.091 709.119-1.391 13.495h4.279l.996-9.662c.429-.27 1.41-.702 2.453-.702 1.15 0 1.428.675 1.325 1.673l-.896 8.691h4.279l.963-9.339c.267-2.591-.575-4.534-4.213-4.534-1.471 0-3.2.432-4.792 1.35l-.435-.972z"/><path d="m189.409 719.356c-.22.054-.766.162-1.328.162-1.365 0-1.705-.593-1.596-1.646l.532-5.155h3.318l.37-3.59h-3.318l.393-3.805-4.401 1.16-.287 2.78-2.229.594-.295 2.861h2.167l-.568 5.506c-.328 3.185.926 4.777 4.672 4.777.589 0 1.616-.108 2.222-.27z"/><path d="m198.612 718.916s-.888.567-1.958.567c-1.979 0-2.273-1.295-2.034-3.617.237-2.294.801-3.616 2.78-3.616 1.07 0 1.841.567 1.841.567zm5.289-9.797h-2.567l-.834 1.08c-.852-.81-2.043-1.458-4.182-1.458-3.477 0-5.411 2.159-5.923 7.125-.513 4.966.976 7.126 4.453 7.126 2.14 0 3.471.054 4.491-.756l.603.378h2.567z"/><path d="m204.221 722.625h4.261l1.394-13.494h-4.26zm1.397-17.408c-.151 1.458.834 2.564 2.281 2.564 1.42 0 2.659-1.106 2.81-2.564.148-1.43-.861-2.564-2.281-2.564-1.447 0-2.662 1.134-2.81 2.564z"/><path d="m218.48 722.998c6.313 0 8.443-4.318 9.081-10.499.637-6.181-.602-10.499-6.915-10.499s-8.443 4.318-9.081 10.499c-.637 6.181.602 10.499 6.915 10.499zm1.762-17.085c2.648 0 3.473 1.863 2.986 6.586-.488 4.723-1.696 6.585-4.344 6.585s-3.473-1.862-2.986-6.585c.488-4.723 1.696-6.586 4.344-6.586z"/><path d="m236.267 710.313c-2.056-.297-2.785-.756-2.634-2.213.133-1.296 1.436-1.998 3.657-1.998 2.033 0 4.198.54 5.239 1.08l.431-4.183c-.883-.513-2.839-.999-5.568-.999-5.297 0-7.768 2.429-8.147 6.1-.409 3.967 1.388 5.479 6.401 6.153 2.006.27 2.622.783 2.463 2.321-.142 1.377-1.122 2.321-4.145 2.321-2.649 0-4.79-1.025-5.671-1.565l-.457 4.426c1.356.864 3.965 1.242 6.132 1.242 4.736 0 8.052-1.808 8.57-6.828.445-4.319-1.894-5.236-6.271-5.857z"/><path d="m97 688h35v35h-30c-2.7614 0-5-2.239-5-5z"/></g><path d="m110.597 703.407c-2.942-2.01-7.162 0-6.534 3.553.775 4.393 6.324 6.415 11.298 8.226 1.226.447 2.417.881 3.493 1.335l.002.023-3.429.698 7.649 1.758c-1.124-1.758-3.605-5.42-4.543-6.002l.285 3.134c-1.225-.571-2.59-1.084-3.97-1.602-4.534-1.701-9.232-3.465-9.671-7.57-.332-3.11 2.592-2.313 5.082-1.635.114.031.226.062.338.092z" fill="#131313"/><path d="m122.146 707.937 1.577.704c.088.04.201-.007.252-.102s.021-.205-.067-.244l-1.597-.713c.321-.754.501-1.577.501-2.437 0-.859-.18-1.634-.501-2.301l1.597-1.148c.088-.064.118-.181.067-.263s-.164-.097-.252-.033l-1.577 1.133c-.85-1.468-2.439-2.325-4.298-2.249v11.074c1.859-.43 3.448-1.72 4.298-3.421z" fill="#131313"/><path d="m122.146 707.937 1.577.704c.088.04.201-.007.252-.102s.021-.205-.067-.244l-1.597-.713c.321-.754.501-1.577.501-2.437 0-.859-.18-1.634-.501-2.301l1.597-1.148c.088-.064.118-.181.067-.263s-.164-.097-.252-.033l-1.577 1.133c-.85-1.468-2.439-2.325-4.298-2.249v11.074c.343-.079.677-.188.999-.323.473-.199.919-.454 1.33-.758.825-.61 1.507-1.414 1.969-2.34z" fill="#131313"/><path d="m124 699.446c-3.394 3.748-5.799 8.98-8.499 14.056 0 0 3.732-5.689 4.322-6.629.59-.939 4.177-7.427 4.177-7.427z" fill="#131313"/><path d="m108.97 713.288 2.307-.747v-7.147l3.513-.853v8l2.302-.853v-17.301l-2.302.647v6.491l-3.513.853v-7.139l-2.307.641z" fill="#131313"/><path d="m108.97 713.535 2.307-.747v-7.147l3.513-.853v8l2.302-.853v-17.548l-2.302.748v6.637l-3.513.853v-7.139l-2.307.641z" fill="#131313"/><path d="m118.975 711.91c.831-.341 2.64-1.286 3.385-2.393.02-.031.039-.06.056-.087-.018.029-.036.058-.056.087-.32.486-1.009 1.383-1.614 1.679-.643.315-1.449.607-1.771.714z" fill="#131313"/><path d="m118.739 710.913.08-.184 2.105-1.147s.026.183-.291.854c.357.645.423 1.884-.215 1.878s-.362-1.339-.444-1.3-.463.71-.714.604c-.251-.107-.089-.566-.146-.652-.046-.068-.269-.064-.375-.053z" fill="#131313"/><path clip-rule="evenodd" d="m115.347 693.492c-.087-.023-.204-.043-.355-.055-.102-.009-.466.004-.976.042-.502.037-1.128.098-1.741.181-.615.084-1.21.189-1.653.314-.222.063-.396.128-.513.193-.022.012-.04.023-.056.034.068.031.179.067.353.094.463.072 1.318.074 2.844-.182.608-.102 1.093-.214 1.458-.325.341-.105.562-.204.682-.284-.013-.004-.027-.008-.043-.012zm-.52.712c-.387.119-.89.234-1.51.338-1.543.258-2.448.264-2.974.182-.262-.04-.443-.105-.564-.181-.061-.039-.112-.084-.149-.137-.035-.049-.071-.126-.059-.217.014-.105.069-.189.128-.25s.134-.112.212-.155c.158-.087.367-.163.601-.229.47-.133 1.087-.241 1.708-.326.623-.084 1.257-.146 1.766-.184.501-.037.9-.053 1.039-.041.166.013.309.036.426.067.113.03.222.073.302.141.042.036.083.086.107.151.026.067.027.138.009.204-.032.119-.122.207-.204.268-.171.129-.458.253-.838.369z" fill="#131313" fill-rule="evenodd"/><path d="m109.958 694.942c-.169.021-.188-.257-.176-.399.66.187 1.041.229 1.738.194-.23.121-.648.966-.964.939-.316-.026-.273-.731-.355-.779-.083-.048-.033.018-.243.045z" fill="#131313"/></svg>