<svg width="2000" height="800" viewBox="0 0 2000 800" fill="none" xmlns="http://www.w3.org/2000/svg">
<rect width="2000" height="800" fill="#151515"/>
<path d="M495.979 405.835C509.959 405.835 520.273 400.449 526.346 393.115L514.658 383.146C509.959 388.302 504.115 390.938 496.323 390.938C480.509 390.938 470.769 379.021 470.769 364.353C470.769 349.685 480.509 337.539 495.979 337.539C503.198 337.539 509.157 340.06 513.97 345.102L525.315 335.247C518.095 326.652 509.043 322.642 495.979 322.642C471.228 322.642 454.154 341.32 454.154 364.353C454.154 387.271 472.144 405.835 495.979 405.835ZM557.837 405.835C576.286 405.835 589.579 391.855 589.579 374.666C589.579 357.477 576.286 343.383 557.837 343.383C539.388 343.383 526.095 357.477 526.095 374.666C526.095 391.855 539.388 405.835 557.837 405.835ZM541.565 374.666C541.565 365.384 547.982 357.477 557.837 357.477C567.692 357.477 574.109 365.384 574.109 374.666C574.109 383.948 567.692 391.74 557.837 391.74C547.982 391.74 541.565 383.948 541.565 374.666ZM596.425 404.345H611.895V373.864C611.895 363.895 618.771 357.936 627.709 357.936H629.886V343.383C619.573 342.81 613.499 347.508 611.437 356.102V344.758H596.425V404.345ZM660.656 405.835C672.459 405.835 682.429 400.564 687.241 393.115L675.209 384.063C672.459 388.646 667.303 392.084 660.656 392.084C652.864 392.084 647.593 387.157 645.874 380.166H690.45C690.794 378.218 690.908 376.385 690.908 374.666C690.908 357.477 678.533 343.268 660.656 343.268C642.78 343.268 629.831 357.477 629.831 374.666C629.831 391.855 642.207 405.835 660.656 405.835ZM645.874 368.593C647.593 361.488 653.093 356.561 660.427 356.561C667.99 356.561 673.605 361.947 675.324 368.593H645.874ZM741.422 405.835C759.642 405.835 770.758 395.98 770.758 381.427C770.758 363.092 754.257 358.967 744.86 355.988C737.87 353.811 732.141 351.863 732.141 345.904C732.141 340.518 736.839 337.08 743.256 337.08C749.215 337.08 752.881 339.945 756.778 346.133L770.529 337.653C764.57 328.257 756.548 322.756 744.058 322.756C727.099 322.756 715.754 332.267 715.754 346.706C715.754 358.853 723.661 366.072 736.037 369.28C745.891 371.801 754.371 374.322 754.371 382.344C754.371 387.844 749.788 391.511 742.339 391.511C735.349 391.511 728.703 387.959 724.578 379.708L710.712 388.532C717.702 400.793 728.703 405.835 741.422 405.835ZM806.714 405.835C825.163 405.835 838.456 391.855 838.456 374.666C838.456 357.477 825.163 343.383 806.714 343.383C788.265 343.383 774.972 357.477 774.972 374.666C774.972 391.855 788.265 405.835 806.714 405.835ZM790.442 374.666C790.442 365.384 796.859 357.477 806.714 357.477C816.569 357.477 822.986 365.384 822.986 374.666C822.986 383.948 816.569 391.74 806.714 391.74C796.859 391.74 790.442 383.948 790.442 374.666ZM867.419 405.72C876.701 405.72 882.086 402.283 884.951 395.407V404.345H899.963V344.758H884.493V377.416C884.493 387.729 878.649 392.199 872.117 392.199C864.439 392.199 860.2 387.729 860.2 377.416V344.758H844.73V381.198C844.73 396.209 854.585 405.72 867.419 405.72ZM909.089 404.345H924.558V373.864C924.558 363.895 931.434 357.936 940.372 357.936H942.549V343.383C932.236 342.81 926.163 347.508 924.1 356.102V344.758H909.089V404.345ZM973.205 405.835C984.893 405.835 993.144 401.595 998.759 394.376L987.529 384.636C984.435 388.761 980.539 391.74 974.58 391.74C964.725 391.74 957.964 383.833 957.964 374.552C957.964 365.27 964.382 357.363 974.236 357.363C979.508 357.363 984.091 359.998 986.841 364.124L998.759 354.384C993.717 347.393 984.893 343.154 974.007 343.268C955.787 343.383 942.495 357.248 942.495 374.552C942.495 391.855 956.131 405.835 973.205 405.835ZM1029.61 405.835C1041.41 405.835 1051.38 400.564 1056.19 393.115L1044.16 384.063C1041.41 388.646 1036.25 392.084 1029.61 392.084C1021.82 392.084 1016.54 387.157 1014.83 380.166H1059.4C1059.75 378.218 1059.86 376.385 1059.86 374.666C1059.86 357.477 1047.48 343.268 1029.61 343.268C1011.73 343.268 998.783 357.477 998.783 374.666C998.783 391.855 1011.16 405.835 1029.61 405.835ZM1014.83 368.593C1016.54 361.488 1022.05 356.561 1029.38 356.561C1036.94 356.561 1042.56 361.947 1044.28 368.593H1014.83Z" fill="white"/>
<rect x="700.914" y="422.931" width="216.75" height="26.2019" fill="#F30058"/>
<path d="M308.197 253.261L398.591 305.45V409.827L308.197 462.016L217.804 409.827V305.45L308.197 253.261Z" fill="white"/>
<path d="M308.198 266.566L387.068 312.102V403.175L308.198 448.711L229.327 403.175V312.102L308.198 266.566Z" fill="#FF9A9A"/>
<path d="M308.197 287.659L368.801 322.649V392.628L308.197 427.618L247.593 392.628V322.649L308.197 287.659Z" fill="#F15151"/>
<path d="M308.197 330.19L350.385 354.547V403.261L308.197 427.618L266.01 403.261V354.547L308.197 330.19Z" fill="#D31D2C"/>
<path fill-rule="evenodd" clip-rule="evenodd" d="M308.592 379.035L350.383 354.549L349.671 354.139L308.596 378.084L266.522 353.734L265.738 354.204L308.592 379.035Z" fill="white" fill-opacity="0.1"/>
<path d="M308.653 349.277V253.283L217.711 305.771L308.653 349.277Z" stroke="white" stroke-opacity="0.1" stroke-width="0.822592"/>
<path d="M308.653 349.277V253.283L399.595 305.771L308.653 349.277Z" stroke="white" stroke-opacity="0.1" stroke-width="0.822592"/>
<path d="M308.653 348.623L308.653 462.302" stroke="white" stroke-opacity="0.2" stroke-width="0.822592"/>
<path d="M703.709 479.291H705.529V471.829H708.129V470.191H701.109V471.829H703.709V479.291ZM708.594 479.291H710.349V475.586C710.349 474.416 711.012 473.909 711.753 473.909C712.624 473.909 713.209 474.416 713.209 475.586V479.291H714.964V475.157C714.964 473.454 713.846 472.375 712.39 472.375C711.376 472.375 710.713 472.739 710.349 473.467V469.801H708.594V479.291ZM715.945 479.291H717.7V472.531H715.945V479.291ZM715.763 470.932C715.763 471.504 716.218 471.972 716.816 471.972C717.427 471.972 717.869 471.517 717.869 470.932C717.869 470.373 717.427 469.905 716.816 469.905C716.218 469.905 715.763 470.373 715.763 470.932ZM721.052 479.46C722.547 479.46 723.678 478.524 723.678 477.276C723.678 476.262 723.223 475.534 721.26 475.027C720.454 474.819 720.35 474.611 720.35 474.377C720.35 473.961 720.714 473.779 721.195 473.779C721.65 473.779 722.066 473.987 722.391 474.507L723.665 473.532C722.976 472.635 722.248 472.362 721.156 472.362C719.57 472.362 718.634 473.246 718.634 474.429C718.634 475.287 718.907 476.106 720.714 476.535C721.78 476.782 721.949 476.977 721.949 477.328C721.949 477.731 721.611 478.03 721.013 478.03C720.441 478.03 719.921 477.757 719.427 477.198L718.244 478.277C718.985 479.07 719.908 479.46 721.052 479.46ZM726.495 479.291H728.25V475.833C728.25 474.702 729.03 474.026 730.044 474.026H730.291V472.375C729.121 472.31 728.432 472.843 728.198 473.818V472.531H726.495V479.291ZM733.781 479.46C735.12 479.46 736.251 478.862 736.797 478.017L735.432 476.99C735.12 477.51 734.535 477.9 733.781 477.9C732.897 477.9 732.299 477.341 732.104 476.548H737.161C737.2 476.327 737.213 476.119 737.213 475.924C737.213 473.974 735.809 472.362 733.781 472.362C731.753 472.362 730.284 473.974 730.284 475.924C730.284 477.874 731.688 479.46 733.781 479.46ZM732.104 475.235C732.299 474.429 732.923 473.87 733.755 473.87C734.613 473.87 735.25 474.481 735.445 475.235H732.104ZM737.984 481.891H739.739V478.29C740.103 478.992 740.714 479.46 741.871 479.46C743.73 479.46 745.212 477.887 745.212 475.937C745.212 473.987 743.73 472.388 741.871 472.388C740.688 472.388 740.077 472.882 739.713 473.623V472.531H737.984V481.891ZM739.687 475.937C739.687 474.884 740.428 473.974 741.585 473.974C742.703 473.974 743.457 474.871 743.457 475.924C743.457 476.951 742.703 477.874 741.585 477.874C740.428 477.874 739.687 476.99 739.687 475.937ZM749.272 479.46C751.365 479.46 752.873 477.874 752.873 475.924C752.873 473.974 751.365 472.375 749.272 472.375C747.179 472.375 745.671 473.974 745.671 475.924C745.671 477.874 747.179 479.46 749.272 479.46ZM747.426 475.924C747.426 474.871 748.154 473.974 749.272 473.974C750.39 473.974 751.118 474.871 751.118 475.924C751.118 476.977 750.39 477.861 749.272 477.861C748.154 477.861 747.426 476.977 747.426 475.924ZM755.824 479.46C757.319 479.46 758.45 478.524 758.45 477.276C758.45 476.262 757.995 475.534 756.032 475.027C755.226 474.819 755.122 474.611 755.122 474.377C755.122 473.961 755.486 473.779 755.967 473.779C756.422 473.779 756.838 473.987 757.163 474.507L758.437 473.532C757.748 472.635 757.02 472.362 755.928 472.362C754.342 472.362 753.406 473.246 753.406 474.429C753.406 475.287 753.679 476.106 755.486 476.535C756.552 476.782 756.721 476.977 756.721 477.328C756.721 477.731 756.383 478.03 755.785 478.03C755.213 478.03 754.693 477.757 754.199 477.198L753.016 478.277C753.757 479.07 754.68 479.46 755.824 479.46ZM759.134 479.291H760.889V472.531H759.134V479.291ZM758.952 470.932C758.952 471.504 759.407 471.972 760.005 471.972C760.616 471.972 761.058 471.517 761.058 470.932C761.058 470.373 760.616 469.905 760.005 469.905C759.407 469.905 758.952 470.373 758.952 470.932ZM764.488 479.291H765.45V477.731H764.722C764.384 477.731 764.176 477.536 764.176 477.107V474.026H765.606V472.531H764.176V470.984L762.421 471.166V472.531H761.472V474.026H762.421V477.198C762.421 478.667 763.149 479.291 764.488 479.291ZM769.356 479.46C771.449 479.46 772.957 477.874 772.957 475.924C772.957 473.974 771.449 472.375 769.356 472.375C767.263 472.375 765.755 473.974 765.755 475.924C765.755 477.874 767.263 479.46 769.356 479.46ZM767.51 475.924C767.51 474.871 768.238 473.974 769.356 473.974C770.474 473.974 771.202 474.871 771.202 475.924C771.202 476.977 770.474 477.861 769.356 477.861C768.238 477.861 767.51 476.977 767.51 475.924ZM773.734 479.291H775.489V475.833C775.489 474.702 776.269 474.026 777.283 474.026H777.53V472.375C776.36 472.31 775.671 472.843 775.437 473.818V472.531H773.734V479.291ZM778.968 482.008C780.554 482.008 781.399 481.085 781.971 479.72L784.961 472.531H782.881L781.568 476.392C781.451 476.717 781.347 477.12 781.282 477.471C781.217 477.12 781.113 476.717 780.996 476.392L779.683 472.531H777.564L780.242 478.979L780.151 479.265C779.956 479.863 779.527 480.292 778.851 480.292C778.565 480.292 778.318 480.266 778.058 480.201L777.798 481.878C778.149 481.982 778.617 482.008 778.968 482.008ZM787.419 479.291H789.174V472.531H787.419V479.291ZM787.237 470.932C787.237 471.504 787.692 471.972 788.29 471.972C788.901 471.972 789.343 471.517 789.343 470.932C789.343 470.373 788.901 469.905 788.29 469.905C787.692 469.905 787.237 470.373 787.237 470.932ZM792.526 479.46C794.021 479.46 795.152 478.524 795.152 477.276C795.152 476.262 794.697 475.534 792.734 475.027C791.928 474.819 791.824 474.611 791.824 474.377C791.824 473.961 792.188 473.779 792.669 473.779C793.124 473.779 793.54 473.987 793.865 474.507L795.139 473.532C794.45 472.635 793.722 472.362 792.63 472.362C791.044 472.362 790.108 473.246 790.108 474.429C790.108 475.287 790.381 476.106 792.188 476.535C793.254 476.782 793.423 476.977 793.423 477.328C793.423 477.731 793.085 478.03 792.487 478.03C791.915 478.03 791.395 477.757 790.901 477.198L789.718 478.277C790.459 479.07 791.382 479.46 792.526 479.46ZM799.386 479.291H801.401L802.415 475.443C802.506 475.118 802.571 474.767 802.623 474.429C802.675 474.767 802.753 475.118 802.857 475.443L803.962 479.291H805.86L807.966 472.531H806.055L805.119 476.366C805.041 476.691 804.963 477.055 804.911 477.393C804.859 477.055 804.781 476.678 804.69 476.353L803.637 472.531H801.622L800.634 476.353C800.543 476.678 800.465 477.055 800.413 477.393C800.361 477.055 800.283 476.691 800.205 476.366L799.334 472.531H797.28L799.386 479.291ZM808.316 479.291H810.071V475.586C810.071 474.416 810.734 473.909 811.475 473.909C812.346 473.909 812.931 474.416 812.931 475.586V479.291H814.686V475.157C814.686 473.454 813.568 472.375 812.112 472.375C811.098 472.375 810.435 472.739 810.071 473.467V469.801H808.316V479.291ZM818.903 479.46C820.242 479.46 821.373 478.862 821.919 478.017L820.554 476.99C820.242 477.51 819.657 477.9 818.903 477.9C818.019 477.9 817.421 477.341 817.226 476.548H822.283C822.322 476.327 822.335 476.119 822.335 475.924C822.335 473.974 820.931 472.362 818.903 472.362C816.875 472.362 815.406 473.974 815.406 475.924C815.406 477.874 816.81 479.46 818.903 479.46ZM817.226 475.235C817.421 474.429 818.045 473.87 818.877 473.87C819.735 473.87 820.372 474.481 820.567 475.235H817.226ZM823.106 479.291H824.861V475.833C824.861 474.702 825.641 474.026 826.655 474.026H826.902V472.375C825.732 472.31 825.043 472.843 824.809 473.818V472.531H823.106V479.291ZM830.393 479.46C831.732 479.46 832.863 478.862 833.409 478.017L832.044 476.99C831.732 477.51 831.147 477.9 830.393 477.9C829.509 477.9 828.911 477.341 828.716 476.548H833.773C833.812 476.327 833.825 476.119 833.825 475.924C833.825 473.974 832.421 472.362 830.393 472.362C828.365 472.362 826.896 473.974 826.896 475.924C826.896 477.874 828.3 479.46 830.393 479.46ZM828.716 475.235C828.911 474.429 829.535 473.87 830.367 473.87C831.225 473.87 831.862 474.481 832.057 475.235H828.716ZM836.614 479.291H838.369V475.586C838.369 474.416 839.032 473.909 839.773 473.909C840.644 473.909 841.229 474.416 841.229 475.586V479.291H842.984V475.157C842.984 473.454 841.866 472.375 840.41 472.375C839.396 472.375 838.733 472.739 838.369 473.467V469.801H836.614V479.291ZM847.045 479.46C848.254 479.46 848.865 478.953 849.229 478.186V479.291H850.932V472.531H849.19V473.597C848.826 472.869 848.215 472.388 847.045 472.388C845.186 472.388 843.704 473.987 843.704 475.937C843.704 477.887 845.186 479.46 847.045 479.46ZM845.459 475.924C845.459 474.871 846.213 473.974 847.331 473.974C848.488 473.974 849.229 474.884 849.229 475.937C849.229 476.99 848.488 477.874 847.331 477.874C846.213 477.874 845.459 476.951 845.459 475.924ZM854.081 479.291H855.849L858.657 472.531H856.616L855.264 476.392C855.147 476.717 855.043 477.12 854.978 477.471C854.913 477.12 854.809 476.717 854.692 476.392L853.34 472.531H851.26L854.081 479.291ZM861.788 479.46C863.127 479.46 864.258 478.862 864.804 478.017L863.439 476.99C863.127 477.51 862.542 477.9 861.788 477.9C860.904 477.9 860.306 477.341 860.111 476.548H865.168C865.207 476.327 865.22 476.119 865.22 475.924C865.22 473.974 863.816 472.362 861.788 472.362C859.76 472.362 858.291 473.974 858.291 475.924C858.291 477.874 859.695 479.46 861.788 479.46ZM860.111 475.235C860.306 474.429 860.93 473.87 861.762 473.87C862.62 473.87 863.257 474.481 863.452 475.235H860.111ZM868.503 472.076V472.531H867.554V474.026H868.503V479.291H870.258V474.026H871.636V472.531H870.258V472.102C870.258 471.569 870.505 471.296 871.025 471.296H871.48V469.801H870.752C869.387 469.801 868.503 470.711 868.503 472.076ZM874.733 479.447C875.786 479.447 876.397 479.057 876.722 478.277V479.291H878.425V472.531H876.67V476.236C876.67 477.406 876.007 477.913 875.266 477.913C874.395 477.913 873.914 477.406 873.914 476.236V472.531H872.159V476.665C872.159 478.368 873.277 479.447 874.733 479.447ZM879.46 479.291H881.215V475.586C881.215 474.416 881.878 473.909 882.619 473.909C883.49 473.909 884.075 474.416 884.075 475.586V479.291H885.83V475.157C885.83 473.454 884.712 472.375 883.256 472.375C882.216 472.375 881.54 472.765 881.189 473.519V472.531H879.46V479.291ZM890.361 479.291H892.376L893.39 475.443C893.481 475.118 893.546 474.767 893.598 474.429C893.65 474.767 893.728 475.118 893.832 475.443L894.937 479.291H896.835L898.941 472.531H897.03L896.094 476.366C896.016 476.691 895.938 477.055 895.886 477.393C895.834 477.055 895.756 476.678 895.665 476.353L894.612 472.531H892.597L891.609 476.353C891.518 476.678 891.44 477.055 891.388 477.393C891.336 477.055 891.258 476.691 891.18 476.366L890.309 472.531H888.255L890.361 479.291ZM899.291 479.291H901.046V472.531H899.291V479.291ZM899.109 470.932C899.109 471.504 899.564 471.972 900.162 471.972C900.773 471.972 901.215 471.517 901.215 470.932C901.215 470.373 900.773 469.905 900.162 469.905C899.564 469.905 899.109 470.373 899.109 470.932ZM904.644 479.291H905.606V477.731H904.878C904.54 477.731 904.332 477.536 904.332 477.107V474.026H905.762V472.531H904.332V470.984L902.577 471.166V472.531H901.628V474.026H902.577V477.198C902.577 478.667 903.305 479.291 904.644 479.291ZM906.154 479.291H908.078L914.37 469.801H912.42L906.154 479.291ZM915.083 479.291H916.838V475.586C916.838 474.416 917.501 473.909 918.242 473.909C919.113 473.909 919.698 474.416 919.698 475.586V479.291H921.453V475.157C921.453 473.454 920.335 472.375 918.879 472.375C917.865 472.375 917.202 472.739 916.838 473.467V469.801H915.083V479.291ZM922.239 479.291H924.163L930.455 469.801H928.505L922.239 479.291ZM932.231 479.46C932.907 479.46 933.388 478.94 933.388 478.316C933.388 477.705 932.907 477.185 932.231 477.185C931.555 477.185 931.061 477.705 931.061 478.316C931.061 478.94 931.555 479.46 932.231 479.46ZM933.995 479.291H935.919L942.211 469.801H940.261L933.995 479.291ZM946.574 479.291H948.108L948.732 476.808H950.851V475.417H949.057L949.551 473.467H951.046V472.076H949.928L950.5 469.801H948.94L948.381 472.076H946.678L947.25 469.801H945.69L945.118 472.076H943.09V473.467H944.793L944.312 475.417H942.895V476.808H943.935L943.324 479.291H944.858L945.482 476.808H947.198L946.574 479.291ZM945.768 475.417L946.262 473.467H948.095L947.601 475.417H945.768ZM951.73 479.291H953.654L959.946 469.801H957.996L951.73 479.291ZM701.655 494.381H703.124L703.761 493.354H707.375V491.924H704.567L705.542 490.455H707.375V489.025H706.439L707.076 487.998H705.62L704.983 489.025H701.499V490.455H704.164L703.189 491.924H701.499V493.354H702.292L701.655 494.381ZM723.875 495.291H725.799L732.091 485.801H730.141L723.875 495.291ZM732.736 495.291H734.66L740.952 485.801H739.002L732.736 495.291ZM741.597 495.291H743.521L749.813 485.801H747.863L741.597 495.291ZM750.459 495.291H752.383L758.675 485.801H756.725L750.459 495.291ZM759.32 495.291H761.244L767.536 485.801H765.586L759.32 495.291ZM768.181 495.291H770.105L776.397 485.801H774.447L768.181 495.291ZM777.043 495.291H778.967L785.259 485.801H783.309L777.043 495.291ZM785.904 495.291H787.828L794.12 485.801H792.17L785.904 495.291ZM794.765 495.291H796.689L802.981 485.801H801.031L794.765 495.291ZM803.627 495.291H805.551L811.843 485.801H809.893L803.627 495.291ZM812.488 495.291H814.412L820.704 485.801H818.754L812.488 495.291ZM821.349 495.291H823.273L829.565 485.801H827.615L821.349 495.291ZM830.211 495.291H832.135L838.427 485.801H836.477L830.211 495.291ZM839.072 495.291H840.996L847.288 485.801H845.338L839.072 495.291ZM847.933 495.291H849.857L856.149 485.801H854.199L847.933 495.291ZM856.795 495.291H858.719L865.011 485.801H863.061L856.795 495.291ZM865.656 495.291H867.58L873.872 485.801H871.922L865.656 495.291ZM874.517 495.291H876.441L882.733 485.801H880.783L874.517 495.291ZM883.379 495.291H885.303L891.595 485.801H889.645L883.379 495.291ZM892.24 495.291H894.164L900.456 485.801H898.506L892.24 495.291ZM901.101 495.291H903.025L909.317 485.801H907.367L901.101 495.291ZM909.963 495.291H911.887L918.179 485.801H916.229L909.963 495.291ZM918.824 495.291H920.748L927.04 485.801H925.09L918.824 495.291ZM927.685 495.291H929.609L935.901 485.801H933.951L927.685 495.291ZM936.547 495.291H938.471L944.763 485.801H942.813L936.547 495.291ZM945.408 495.291H947.332L953.624 485.801H951.674L945.408 495.291ZM954.269 495.291H956.193L962.485 485.801H960.535L954.269 495.291ZM963.131 495.291H965.055L971.347 485.801H969.397L963.131 495.291ZM971.992 495.291H973.916L980.208 485.801H978.258L971.992 495.291ZM980.853 495.291H982.777L989.069 485.801H987.119L980.853 495.291ZM989.715 495.291H991.639L997.931 485.801H995.981L989.715 495.291ZM998.576 495.291H1000.5L1006.79 485.801H1004.84L998.576 495.291ZM1007.44 495.291H1009.36L1015.65 485.801H1013.7L1007.44 495.291ZM1016.3 495.291H1018.22L1024.51 485.801H1022.56L1016.3 495.291ZM1025.16 495.291H1027.08L1033.38 485.801H1031.43L1025.16 495.291ZM1034.02 495.291H1035.95L1042.24 485.801H1040.29L1034.02 495.291ZM1042.88 495.291H1044.81L1051.1 485.801H1049.15L1042.88 495.291ZM1051.74 495.291H1053.67L1059.96 485.801H1058.01L1051.74 495.291ZM1060.61 495.291H1062.53L1068.82 485.801H1066.87L1060.61 495.291ZM1069.47 495.291H1071.39L1077.68 485.801H1075.73L1069.47 495.291ZM1078.33 495.291H1080.25L1086.54 485.801H1084.59L1078.33 495.291ZM1087.19 495.291H1089.11L1095.41 485.801H1093.46L1087.19 495.291ZM1096.05 495.291H1097.97L1104.27 485.801H1102.32L1096.05 495.291ZM1104.91 495.291H1106.84L1113.13 485.801H1111.18L1104.91 495.291ZM701.239 511.291H703.163L709.455 501.801H707.505L701.239 511.291ZM710.1 511.291H712.024L718.316 501.801H716.366L710.1 511.291ZM718.962 511.291H720.886L727.178 501.801H725.228L718.962 511.291ZM727.823 511.291H729.747L736.039 501.801H734.089L727.823 511.291ZM736.684 511.291H738.608L744.9 501.801H742.95L736.684 511.291ZM745.546 511.291H747.47L753.762 501.801H751.812L745.546 511.291ZM754.407 511.291H756.331L762.623 501.801H760.673L754.407 511.291ZM763.268 511.291H765.192L771.484 501.801H769.534L763.268 511.291ZM772.13 511.291H774.054L780.346 501.801H778.396L772.13 511.291ZM780.991 511.291H782.915L789.207 501.801H787.257L780.991 511.291ZM789.852 511.291H791.776L798.068 501.801H796.118L789.852 511.291ZM798.714 511.291H800.638L806.93 501.801H804.98L798.714 511.291ZM807.575 511.291H809.499L815.791 501.801H813.841L807.575 511.291ZM816.436 511.291H818.36L824.652 501.801H822.702L816.436 511.291ZM825.298 511.291H827.222L833.514 501.801H831.564L825.298 511.291ZM834.159 511.291H836.083L842.375 501.801H840.425L834.159 511.291ZM843.02 511.291H844.944L851.236 501.801H849.286L843.02 511.291ZM851.882 511.291H853.806L860.098 501.801H858.148L851.882 511.291ZM860.743 511.291H862.667L868.959 501.801H867.009L860.743 511.291ZM869.604 511.291H871.528L877.82 501.801H875.87L869.604 511.291ZM878.466 511.291H880.39L886.682 501.801H884.732L878.466 511.291ZM887.327 511.291H889.251L895.543 501.801H893.593L887.327 511.291ZM896.188 511.291H898.112L904.404 501.801H902.454L896.188 511.291ZM905.05 511.291H906.974L913.266 501.801H911.316L905.05 511.291ZM913.911 511.291H915.835L922.127 501.801H920.177L913.911 511.291ZM922.772 511.291H924.696L930.988 501.801H929.038L922.772 511.291ZM931.634 511.291H933.558L939.85 501.801H937.9L931.634 511.291ZM940.495 511.291H942.419L948.711 501.801H946.761L940.495 511.291ZM949.356 511.291H951.28L957.572 501.801H955.622L949.356 511.291ZM958.218 511.291H960.142L966.434 501.801H964.484L958.218 511.291ZM967.079 511.291H969.003L975.295 501.801H973.345L967.079 511.291ZM975.94 511.291H977.864L984.156 501.801H982.206L975.94 511.291ZM984.802 511.291H986.726L993.018 501.801H991.068L984.802 511.291ZM993.663 511.291H995.587L1001.88 501.801H999.929L993.663 511.291ZM1002.52 511.291H1004.45L1010.74 501.801H1008.79L1002.52 511.291ZM1011.39 511.291H1013.31L1019.6 501.801H1017.65L1011.39 511.291ZM1024.51 511.291H1026.44L1032.73 501.801H1030.78L1024.51 511.291ZM1033.37 511.291H1035.3L1041.59 501.801H1039.64L1033.37 511.291ZM1044.37 511.291H1046.29L1052.58 501.801H1050.63L1044.37 511.291ZM1055.36 511.291H1057.29L1063.58 501.801H1061.63L1055.36 511.291ZM1064.22 511.291H1066.15L1072.44 501.801H1070.49L1064.22 511.291ZM1073.08 511.291H1075.01L1081.3 501.801H1079.35L1073.08 511.291ZM1081.95 511.291H1083.87L1090.16 501.801H1088.21L1081.95 511.291ZM1090.81 511.291H1092.73L1099.02 501.801H1097.07L1090.81 511.291ZM1099.67 511.291H1101.59L1107.88 501.801H1105.93L1099.67 511.291ZM1108.53 511.291H1110.45L1116.75 501.801H1114.8L1108.53 511.291ZM1117.39 511.291H1119.32L1125.61 501.801H1123.66L1117.39 511.291ZM1126.25 511.291H1128.18L1134.47 501.801H1132.52L1126.25 511.291ZM1135.11 511.291H1137.04L1143.33 501.801H1141.38L1135.11 511.291ZM1143.98 511.291H1145.9L1152.19 501.801H1150.24L1143.98 511.291ZM1152.84 511.291H1154.76L1161.05 501.801H1159.1L1152.84 511.291ZM1161.7 511.291H1163.62L1169.91 501.801H1167.96L1161.7 511.291ZM1170.56 511.291H1172.48L1178.78 501.801H1176.83L1170.56 511.291ZM701.239 527.291H703.163L709.455 517.801H707.505L701.239 527.291ZM710.1 527.291H712.024L718.316 517.801H716.366L710.1 527.291ZM718.962 527.291H720.886L727.178 517.801H725.228L718.962 527.291ZM727.823 527.291H729.747L736.039 517.801H734.089L727.823 527.291ZM736.684 527.291H738.608L744.9 517.801H742.95L736.684 527.291ZM745.546 527.291H747.47L753.762 517.801H751.812L745.546 527.291ZM754.407 527.291H756.331L762.623 517.801H760.673L754.407 527.291ZM763.268 527.291H765.192L771.484 517.801H769.534L763.268 527.291ZM772.13 527.291H774.054L780.346 517.801H778.396L772.13 527.291ZM780.991 527.291H782.915L789.207 517.801H787.257L780.991 527.291ZM789.852 527.291H791.776L798.068 517.801H796.118L789.852 527.291ZM798.714 527.291H800.638L806.93 517.801H804.98L798.714 527.291ZM807.575 527.291H809.499L815.791 517.801H813.841L807.575 527.291ZM816.436 527.291H818.36L824.652 517.801H822.702L816.436 527.291ZM825.298 527.291H827.222L833.514 517.801H831.564L825.298 527.291ZM834.159 527.291H836.083L842.375 517.801H840.425L834.159 527.291ZM843.02 527.291H844.944L851.236 517.801H849.286L843.02 527.291ZM851.882 527.291H853.806L860.098 517.801H858.148L851.882 527.291ZM860.743 527.291H862.667L868.959 517.801H867.009L860.743 527.291ZM869.604 527.291H871.528L877.82 517.801H875.87L869.604 527.291ZM878.466 527.291H880.39L886.682 517.801H884.732L878.466 527.291ZM887.327 527.291H889.251L895.543 517.801H893.593L887.327 527.291ZM896.188 527.291H898.112L904.404 517.801H902.454L896.188 527.291ZM905.05 527.291H906.974L913.266 517.801H911.316L905.05 527.291ZM913.911 527.291H915.835L922.127 517.801H920.177L913.911 527.291ZM922.772 527.291H924.696L930.988 517.801H929.038L922.772 527.291ZM931.634 527.291H933.558L939.85 517.801H937.9L931.634 527.291ZM940.495 527.291H942.419L948.711 517.801H946.761L940.495 527.291ZM949.356 527.291H951.28L957.572 517.801H955.622L949.356 527.291ZM958.218 527.291H960.142L966.434 517.801H964.484L958.218 527.291ZM967.079 527.291H969.003L975.295 517.801H973.345L967.079 527.291ZM975.94 527.291H977.864L984.156 517.801H982.206L975.94 527.291ZM984.802 527.291H986.726L993.018 517.801H991.068L984.802 527.291ZM993.663 527.291H995.587L1001.88 517.801H999.929L993.663 527.291ZM1002.52 527.291H1004.45L1010.74 517.801H1008.79L1002.52 527.291ZM1011.39 527.291H1013.31L1019.6 517.801H1017.65L1011.39 527.291ZM1020.25 527.291H1022.17L1028.46 517.801H1026.51L1020.25 527.291ZM1029.11 527.291H1031.03L1037.32 517.801H1035.37L1029.11 527.291ZM1037.97 527.291H1039.89L1046.19 517.801H1044.24L1037.97 527.291ZM1046.83 527.291H1048.75L1055.05 517.801H1053.1L1046.83 527.291ZM1055.69 527.291H1057.62L1063.91 517.801H1061.96L1055.69 527.291ZM1064.55 527.291H1066.48L1072.77 517.801H1070.82L1064.55 527.291ZM1073.41 527.291H1075.34L1081.63 517.801H1079.68L1073.41 527.291ZM1082.28 527.291H1084.2L1090.49 517.801H1088.54L1082.28 527.291ZM1091.14 527.291H1093.06L1099.35 517.801H1097.4L1091.14 527.291ZM1100 527.291H1101.92L1108.21 517.801H1106.26L1100 527.291ZM1108.86 527.291H1110.78L1117.08 517.801H1115.13L1108.86 527.291ZM1117.72 527.291H1119.65L1125.94 517.801H1123.99L1117.72 527.291ZM1126.58 527.291H1128.51L1134.8 517.801H1132.85L1126.58 527.291ZM1135.44 527.291H1137.37L1143.66 517.801H1141.71L1135.44 527.291ZM1144.31 527.291H1146.23L1152.52 517.801H1150.57L1144.31 527.291ZM1153.17 527.291H1155.09L1161.38 517.801H1159.43L1153.17 527.291ZM1162.03 527.291H1163.95L1170.24 517.801H1168.29L1162.03 527.291ZM1170.89 527.291H1172.81L1179.11 517.801H1177.16L1170.89 527.291ZM1179.75 527.291H1181.67L1187.97 517.801H1186.02L1179.75 527.291ZM1188.61 527.291H1190.54L1196.83 517.801H1194.88L1188.61 527.291ZM701.239 543.291H703.163L709.455 533.801H707.505L701.239 543.291ZM710.1 543.291H712.024L718.316 533.801H716.366L710.1 543.291ZM718.962 543.291H720.886L727.178 533.801H725.228L718.962 543.291ZM727.823 543.291H729.747L736.039 533.801H734.089L727.823 543.291ZM736.684 543.291H738.608L744.9 533.801H742.95L736.684 543.291ZM745.546 543.291H747.47L753.762 533.801H751.812L745.546 543.291ZM754.407 543.291H756.331L762.623 533.801H760.673L754.407 543.291ZM763.268 543.291H765.192L771.484 533.801H769.534L763.268 543.291ZM772.13 543.291H774.054L780.346 533.801H778.396L772.13 543.291ZM780.991 543.291H782.915L789.207 533.801H787.257L780.991 543.291ZM789.852 543.291H791.776L798.068 533.801H796.118L789.852 543.291ZM798.714 543.291H800.638L806.93 533.801H804.98L798.714 543.291ZM807.575 543.291H809.499L815.791 533.801H813.841L807.575 543.291ZM816.436 543.291H818.36L824.652 533.801H822.702L816.436 543.291ZM825.298 543.291H827.222L833.514 533.801H831.564L825.298 543.291ZM834.159 543.291H836.083L842.375 533.801H840.425L834.159 543.291ZM843.02 543.291H844.944L851.236 533.801H849.286L843.02 543.291ZM851.882 543.291H853.806L860.098 533.801H858.148L851.882 543.291ZM860.743 543.291H862.667L868.959 533.801H867.009L860.743 543.291ZM869.604 543.291H871.528L877.82 533.801H875.87L869.604 543.291ZM878.466 543.291H880.39L886.682 533.801H884.732L878.466 543.291ZM887.327 543.291H889.251L895.543 533.801H893.593L887.327 543.291ZM896.188 543.291H898.112L904.404 533.801H902.454L896.188 543.291ZM905.05 543.291H906.974L913.266 533.801H911.316L905.05 543.291ZM913.911 543.291H915.835L922.127 533.801H920.177L913.911 543.291ZM922.772 543.291H924.696L930.988 533.801H929.038L922.772 543.291ZM931.634 543.291H933.558L939.85 533.801H937.9L931.634 543.291ZM940.495 543.291H942.419L948.711 533.801H946.761L940.495 543.291ZM949.356 543.291H951.28L957.572 533.801H955.622L949.356 543.291ZM958.218 543.291H960.142L966.434 533.801H964.484L958.218 543.291ZM967.079 543.291H969.003L975.295 533.801H973.345L967.079 543.291ZM975.94 543.291H977.864L984.156 533.801H982.206L975.94 543.291ZM984.802 543.291H986.726L993.018 533.801H991.068L984.802 543.291ZM993.663 543.291H995.587L1001.88 533.801H999.929L993.663 543.291ZM1002.52 543.291H1004.45L1010.74 533.801H1008.79L1002.52 543.291ZM701.239 559.291H703.163L709.455 549.801H707.505L701.239 559.291ZM710.1 559.291H712.024L718.316 549.801H716.366L710.1 559.291ZM718.962 559.291H720.886L727.178 549.801H725.228L718.962 559.291ZM727.823 559.291H729.747L736.039 549.801H734.089L727.823 559.291ZM736.684 559.291H738.608L744.9 549.801H742.95L736.684 559.291ZM745.546 559.291H747.47L753.762 549.801H751.812L745.546 559.291ZM754.407 559.291H756.331L762.623 549.801H760.673L754.407 559.291ZM763.268 559.291H765.192L771.484 549.801H769.534L763.268 559.291ZM772.13 559.291H774.054L780.346 549.801H778.396L772.13 559.291ZM780.991 559.291H782.915L789.207 549.801H787.257L780.991 559.291ZM789.852 559.291H791.776L798.068 549.801H796.118L789.852 559.291ZM798.714 559.291H800.638L806.93 549.801H804.98L798.714 559.291ZM807.575 559.291H809.499L815.791 549.801H813.841L807.575 559.291ZM818.569 559.291H820.493L826.785 549.801H824.835L818.569 559.291ZM827.43 559.291H829.354L835.646 549.801H833.696L827.43 559.291ZM836.292 559.291H838.216L844.508 549.801H842.558L836.292 559.291ZM845.153 559.291H847.077L853.369 549.801H851.419L845.153 559.291ZM854.014 559.291H855.938L862.23 549.801H860.28L854.014 559.291ZM862.876 559.291H864.8L871.092 549.801H869.142L862.876 559.291ZM871.737 559.291H873.661L879.953 549.801H878.003L871.737 559.291ZM880.598 559.291H882.522L888.814 549.801H886.864L880.598 559.291ZM889.46 559.291H891.384L897.676 549.801H895.726L889.46 559.291ZM900.454 559.291H902.378L908.67 549.801H906.72L900.454 559.291ZM909.315 559.291H911.239L917.531 549.801H915.581L909.315 559.291ZM918.177 559.291H920.101L926.393 549.801H924.443L918.177 559.291ZM927.038 559.291H928.962L935.254 549.801H933.304L927.038 559.291ZM935.899 559.291H937.823L944.115 549.801H942.165L935.899 559.291ZM944.761 559.291H946.685L952.977 549.801H951.027L944.761 559.291ZM953.622 559.291H955.546L961.838 549.801H959.888L953.622 559.291ZM962.483 559.291H964.407L970.699 549.801H968.749L962.483 559.291ZM971.345 559.291H973.269L979.561 549.801H977.611L971.345 559.291ZM980.206 559.291H982.13L988.422 549.801H986.472L980.206 559.291ZM989.067 559.291H990.991L997.283 549.801H995.333L989.067 559.291ZM997.929 559.291H999.853L1006.14 549.801H1004.19L997.929 559.291ZM1006.79 559.291H1008.71L1015.01 549.801H1013.06L1006.79 559.291ZM1015.65 559.291H1017.58L1023.87 549.801H1021.92L1015.65 559.291ZM1024.51 559.291H1026.44L1032.73 549.801H1030.78L1024.51 559.291ZM1033.37 559.291H1035.3L1041.59 549.801H1039.64L1033.37 559.291ZM1042.24 559.291H1044.16L1050.45 549.801H1048.5L1042.24 559.291ZM1051.1 559.291H1053.02L1059.31 549.801H1057.36L1051.1 559.291ZM1059.96 559.291H1061.88L1068.17 549.801H1066.22L1059.96 559.291ZM1068.82 559.291H1070.74L1077.04 549.801H1075.09L1068.82 559.291ZM1077.68 559.291H1079.6L1085.9 549.801H1083.95L1077.68 559.291ZM1086.54 559.291H1088.47L1094.76 549.801H1092.81L1086.54 559.291ZM1095.4 559.291H1097.33L1103.62 549.801H1101.67L1095.4 559.291ZM1104.26 559.291H1106.19L1112.48 549.801H1110.53L1104.26 559.291ZM1113.13 559.291H1115.05L1121.34 549.801H1119.39L1113.13 559.291ZM701.239 575.291H703.163L709.455 565.801H707.505L701.239 575.291ZM710.1 575.291H712.024L718.316 565.801H716.366L710.1 575.291ZM718.962 575.291H720.886L727.178 565.801H725.228L718.962 575.291ZM727.823 575.291H729.747L736.039 565.801H734.089L727.823 575.291ZM736.684 575.291H738.608L744.9 565.801H742.95L736.684 575.291ZM745.546 575.291H747.47L753.762 565.801H751.812L745.546 575.291ZM754.407 575.291H756.331L762.623 565.801H760.673L754.407 575.291ZM763.268 575.291H765.192L771.484 565.801H769.534L763.268 575.291ZM772.13 575.291H774.054L780.346 565.801H778.396L772.13 575.291ZM780.991 575.291H782.915L789.207 565.801H787.257L780.991 575.291ZM789.852 575.291H791.776L798.068 565.801H796.118L789.852 575.291ZM798.714 575.291H800.638L806.93 565.801H804.98L798.714 575.291ZM807.575 575.291H809.499L815.791 565.801H813.841L807.575 575.291ZM816.436 575.291H818.36L824.652 565.801H822.702L816.436 575.291ZM825.298 575.291H827.222L833.514 565.801H831.564L825.298 575.291ZM834.159 575.291H836.083L842.375 565.801H840.425L834.159 575.291ZM843.02 575.291H844.944L851.236 565.801H849.286L843.02 575.291ZM851.882 575.291H853.806L860.098 565.801H858.148L851.882 575.291ZM860.743 575.291H862.667L868.959 565.801H867.009L860.743 575.291ZM869.604 575.291H871.528L877.82 565.801H875.87L869.604 575.291ZM878.466 575.291H880.39L886.682 565.801H884.732L878.466 575.291ZM887.327 575.291H889.251L895.543 565.801H893.593L887.327 575.291ZM896.188 575.291H898.112L904.404 565.801H902.454L896.188 575.291ZM905.05 575.291H906.974L913.266 565.801H911.316L905.05 575.291ZM913.911 575.291H915.835L922.127 565.801H920.177L913.911 575.291ZM922.772 575.291H924.696L930.988 565.801H929.038L922.772 575.291ZM931.634 575.291H933.558L939.85 565.801H937.9L931.634 575.291ZM940.495 575.291H942.419L948.711 565.801H946.761L940.495 575.291ZM949.356 575.291H951.28L957.572 565.801H955.622L949.356 575.291ZM958.218 575.291H960.142L966.434 565.801H964.484L958.218 575.291ZM967.079 575.291H969.003L975.295 565.801H973.345L967.079 575.291ZM975.94 575.291H977.864L984.156 565.801H982.206L975.94 575.291ZM984.802 575.291H986.726L993.018 565.801H991.068L984.802 575.291ZM993.663 575.291H995.587L1001.88 565.801H999.929L993.663 575.291ZM1002.52 575.291H1004.45L1010.74 565.801H1008.79L1002.52 575.291ZM1011.39 575.291H1013.31L1019.6 565.801H1017.65L1011.39 575.291ZM1020.25 575.291H1022.17L1028.46 565.801H1026.51L1020.25 575.291ZM1029.11 575.291H1031.03L1037.32 565.801H1035.37L1029.11 575.291ZM1037.97 575.291H1039.89L1046.19 565.801H1044.24L1037.97 575.291ZM1046.83 575.291H1048.75L1055.05 565.801H1053.1L1046.83 575.291ZM1055.69 575.291H1057.62L1063.91 565.801H1061.96L1055.69 575.291ZM1064.55 575.291H1066.48L1072.77 565.801H1070.82L1064.55 575.291ZM1073.41 575.291H1075.34L1081.63 565.801H1079.68L1073.41 575.291ZM1082.28 575.291H1084.2L1090.49 565.801H1088.54L1082.28 575.291ZM1091.14 575.291H1093.06L1099.35 565.801H1097.4L1091.14 575.291ZM1100 575.291H1101.92L1108.21 565.801H1106.26L1100 575.291ZM1108.86 575.291H1110.78L1117.08 565.801H1115.13L1108.86 575.291ZM1117.72 575.291H1119.65L1125.94 565.801H1123.99L1117.72 575.291ZM1126.58 575.291H1128.51L1134.8 565.801H1132.85L1126.58 575.291ZM1135.44 575.291H1137.37L1143.66 565.801H1141.71L1135.44 575.291ZM1144.31 575.291H1146.23L1152.52 565.801H1150.57L1144.31 575.291ZM1153.17 575.291H1155.09L1161.38 565.801H1159.43L1153.17 575.291ZM1162.03 575.291H1163.95L1170.24 565.801H1168.29L1162.03 575.291ZM1170.89 575.291H1172.81L1179.11 565.801H1177.16L1170.89 575.291ZM1180.88 575.46C1181.56 575.46 1182.04 574.94 1182.04 574.316C1182.04 573.705 1181.56 573.185 1180.88 573.185C1180.21 573.185 1179.71 573.705 1179.71 574.316C1179.71 574.94 1180.21 575.46 1180.88 575.46ZM701.564 591.291H704.814C707.96 591.291 709.481 589.354 709.481 586.754C709.481 584.141 707.96 582.191 704.814 582.191H701.564V591.291ZM703.384 589.653V583.829H704.593C706.751 583.829 707.596 585.103 707.596 586.754C707.596 588.405 706.751 589.653 704.593 589.653H703.384ZM708.906 591.291H710.882L711.506 589.562H715.302L715.926 591.291H717.902L714.197 582.191H712.624L708.906 591.291ZM712.104 587.989L713.079 585.506C713.209 585.181 713.313 584.817 713.404 584.466C713.482 584.817 713.599 585.168 713.729 585.506L714.704 587.989H712.104ZM718.179 591.291H719.934V587.833C719.934 586.702 720.714 586.026 721.728 586.026H721.975V584.375C720.805 584.31 720.116 584.843 719.882 585.818V584.531H718.179V591.291ZM727.031 591.291H729.358L726.16 587.677L729.345 584.531H726.849L724.314 587.261V581.801H722.559V591.291H724.314V588.08L727.031 591.291ZM729.808 591.291H731.563V587.586C731.563 586.416 732.226 585.909 732.967 585.909C733.838 585.909 734.423 586.416 734.423 587.586V591.291H736.178V587.157C736.178 585.454 735.06 584.375 733.604 584.375C732.564 584.375 731.888 584.765 731.537 585.519V584.531H729.808V591.291ZM757.195 591.46C758.69 591.46 759.821 590.524 759.821 589.276C759.821 588.262 759.366 587.534 757.403 587.027C756.597 586.819 756.493 586.611 756.493 586.377C756.493 585.961 756.857 585.779 757.338 585.779C757.793 585.779 758.209 585.987 758.534 586.507L759.808 585.532C759.119 584.635 758.391 584.362 757.299 584.362C755.713 584.362 754.777 585.246 754.777 586.429C754.777 587.287 755.05 588.106 756.857 588.535C757.923 588.782 758.092 588.977 758.092 589.328C758.092 589.731 757.754 590.03 757.156 590.03C756.584 590.03 756.064 589.757 755.57 589.198L754.387 590.277C755.128 591.07 756.051 591.46 757.195 591.46ZM760.505 593.891H762.26V590.29C762.624 590.992 763.235 591.46 764.392 591.46C766.251 591.46 767.733 589.887 767.733 587.937C767.733 585.987 766.251 584.388 764.392 584.388C763.209 584.388 762.598 584.882 762.234 585.623V584.531H760.505V593.891ZM762.208 587.937C762.208 586.884 762.949 585.974 764.106 585.974C765.224 585.974 765.978 586.871 765.978 587.924C765.978 588.951 765.224 589.874 764.106 589.874C762.949 589.874 762.208 588.99 762.208 587.937ZM768.516 591.291H770.271V584.531H768.516V591.291ZM768.334 582.932C768.334 583.504 768.789 583.972 769.387 583.972C769.998 583.972 770.44 583.517 770.44 582.932C770.44 582.373 769.998 581.905 769.387 581.905C768.789 581.905 768.334 582.373 768.334 582.932ZM771.309 591.291H773.064V581.801H771.309V591.291ZM774.102 591.291H775.857V581.801H774.102V591.291ZM779.209 591.46C780.704 591.46 781.835 590.524 781.835 589.276C781.835 588.262 781.38 587.534 779.417 587.027C778.611 586.819 778.507 586.611 778.507 586.377C778.507 585.961 778.871 585.779 779.352 585.779C779.807 585.779 780.223 585.987 780.548 586.507L781.822 585.532C781.133 584.635 780.405 584.362 779.313 584.362C777.727 584.362 776.791 585.246 776.791 586.429C776.791 587.287 777.064 588.106 778.871 588.535C779.937 588.782 780.106 588.977 780.106 589.328C780.106 589.731 779.768 590.03 779.17 590.03C778.598 590.03 778.078 589.757 777.584 589.198L776.401 590.277C777.142 591.07 778.065 591.46 779.209 591.46ZM787.879 591.46C789.972 591.46 791.48 589.874 791.48 587.924C791.48 585.974 789.972 584.375 787.879 584.375C785.786 584.375 784.278 585.974 784.278 587.924C784.278 589.874 785.786 591.46 787.879 591.46ZM786.033 587.924C786.033 586.871 786.761 585.974 787.879 585.974C788.997 585.974 789.725 586.871 789.725 587.924C789.725 588.977 788.997 589.861 787.879 589.861C786.761 589.861 786.033 588.977 786.033 587.924ZM793.956 591.291H795.724L798.532 584.531H796.491L795.139 588.392C795.022 588.717 794.918 589.12 794.853 589.471C794.788 589.12 794.684 588.717 794.567 588.392L793.215 584.531H791.135L793.956 591.291ZM801.663 591.46C803.002 591.46 804.133 590.862 804.679 590.017L803.314 588.99C803.002 589.51 802.417 589.9 801.663 589.9C800.779 589.9 800.181 589.341 799.986 588.548H805.043C805.082 588.327 805.095 588.119 805.095 587.924C805.095 585.974 803.691 584.362 801.663 584.362C799.635 584.362 798.166 585.974 798.166 587.924C798.166 589.874 799.57 591.46 801.663 591.46ZM799.986 587.235C800.181 586.429 800.805 585.87 801.637 585.87C802.495 585.87 803.132 586.481 803.327 587.235H799.986ZM805.866 591.291H807.621V587.833C807.621 586.702 808.401 586.026 809.415 586.026H809.662V584.375C808.492 584.31 807.803 584.843 807.569 585.818V584.531H805.866V591.291ZM814.939 591.291H815.901V589.731H815.173C814.835 589.731 814.627 589.536 814.627 589.107V586.026H816.057V584.531H814.627V582.984L812.872 583.166V584.531H811.923V586.026H812.872V589.198C812.872 590.667 813.6 591.291 814.939 591.291ZM816.644 591.291H818.399V587.586C818.399 586.416 819.062 585.909 819.803 585.909C820.674 585.909 821.259 586.416 821.259 587.586V591.291H823.014V587.157C823.014 585.454 821.896 584.375 820.44 584.375C819.426 584.375 818.763 584.739 818.399 585.467V581.801H816.644V591.291ZM827.232 591.46C828.571 591.46 829.702 590.862 830.248 590.017L828.883 588.99C828.571 589.51 827.986 589.9 827.232 589.9C826.348 589.9 825.75 589.341 825.555 588.548H830.612C830.651 588.327 830.664 588.119 830.664 587.924C830.664 585.974 829.26 584.362 827.232 584.362C825.204 584.362 823.735 585.974 823.735 587.924C823.735 589.874 825.139 591.46 827.232 591.46ZM825.555 587.235C825.75 586.429 826.374 585.87 827.206 585.87C828.064 585.87 828.701 586.481 828.896 587.235H825.555ZM833.453 591.291H835.208V587.586C835.208 586.416 835.871 585.909 836.612 585.909C837.483 585.909 838.068 586.416 838.068 587.586V591.291H839.823V587.157C839.823 585.454 838.705 584.375 837.249 584.375C836.235 584.375 835.572 584.739 835.208 585.467V581.801H833.453V591.291ZM844.144 591.46C846.237 591.46 847.745 589.874 847.745 587.924C847.745 585.974 846.237 584.375 844.144 584.375C842.051 584.375 840.543 585.974 840.543 587.924C840.543 589.874 842.051 591.46 844.144 591.46ZM842.298 587.924C842.298 586.871 843.026 585.974 844.144 585.974C845.262 585.974 845.99 586.871 845.99 587.924C845.99 588.977 845.262 589.861 844.144 589.861C843.026 589.861 842.298 588.977 842.298 587.924ZM848.522 591.291H850.277V587.833C850.277 586.702 851.057 586.026 852.071 586.026H852.318V584.375C851.148 584.31 850.459 584.843 850.225 585.818V584.531H848.522V591.291ZM852.902 591.291H854.657V584.531H852.902V591.291ZM852.72 582.932C852.72 583.504 853.175 583.972 853.773 583.972C854.384 583.972 854.826 583.517 854.826 582.932C854.826 582.373 854.384 581.905 853.773 581.905C853.175 581.905 852.72 582.373 852.72 582.932ZM855.357 591.291H861.259V589.835H858.087C858.178 589.718 858.269 589.614 858.334 589.497L861.324 584.726V584.531H855.5V585.987H858.633C858.516 586.13 858.412 586.26 858.321 586.403L855.357 591.096V591.291ZM864.888 591.46C866.981 591.46 868.489 589.874 868.489 587.924C868.489 585.974 866.981 584.375 864.888 584.375C862.795 584.375 861.287 585.974 861.287 587.924C861.287 589.874 862.795 591.46 864.888 591.46ZM863.042 587.924C863.042 586.871 863.77 585.974 864.888 585.974C866.006 585.974 866.734 586.871 866.734 587.924C866.734 588.977 866.006 589.861 864.888 589.861C863.77 589.861 863.042 588.977 863.042 587.924ZM869.266 591.291H871.021V587.586C871.021 586.416 871.684 585.909 872.425 585.909C873.296 585.909 873.881 586.416 873.881 587.586V591.291H875.636V587.157C875.636 585.454 874.518 584.375 873.062 584.375C872.022 584.375 871.346 584.765 870.995 585.519V584.531H869.266V591.291ZM876.422 591.291H878.346L884.638 581.801H882.688L876.422 591.291ZM885.283 591.291H887.207L893.499 581.801H891.549L885.283 591.291ZM894.144 591.291H896.068L902.36 581.801H900.41L894.144 591.291ZM904.137 591.46C904.813 591.46 905.294 590.94 905.294 590.316C905.294 589.705 904.813 589.185 904.137 589.185C903.461 589.185 902.967 589.705 902.967 590.316C902.967 590.94 903.461 591.46 904.137 591.46Z" fill="white"/>
<path d="M142.088 702.375L140 722.618H144.281L145.277 712.955C145.707 712.685 146.688 712.254 147.731 712.254C148.882 712.254 149.16 712.928 149.057 713.927L148.16 722.618H152.441L153.404 713.279C153.672 710.688 152.829 708.745 149.19 708.745C147.719 708.745 146.609 709.123 145.623 709.609L146.369 702.375H142.088Z" fill="white"/>
<path d="M165.965 717.297C166.749 713.06 166.793 708.741 161.07 708.741C156.924 708.741 154.577 711.008 154.076 715.866C153.575 720.725 155.481 722.992 159.894 722.992C161.499 722.992 163.402 722.695 165.02 722.047L165.368 718.673C164.355 719.159 162.815 719.564 160.81 719.564C158.723 719.564 157.867 719.051 158.155 717.297H165.965ZM160.789 711.98C162.421 711.98 162.619 713.167 162.225 714.652H158.428C158.603 712.952 159.345 711.98 160.789 711.98Z" fill="white"/>
<path d="M168.091 709.119L166.7 722.614H170.979L171.975 712.952C172.404 712.682 173.385 712.25 174.428 712.25C175.578 712.25 175.856 712.925 175.753 713.923L174.857 722.614H179.136L180.099 713.275C180.366 710.684 179.524 708.741 175.886 708.741C174.415 708.741 172.686 709.173 171.094 710.091L170.659 709.119H168.091Z" fill="white"/>
<path d="M189.409 719.356C189.189 719.41 188.643 719.518 188.081 719.518C186.716 719.518 186.376 718.925 186.485 717.872L187.017 712.717H190.335L190.705 709.127H187.387L187.78 705.322L183.379 706.482L183.092 709.262L180.863 709.856L180.568 712.717H182.735L182.167 718.223C181.839 721.408 183.093 723 186.839 723C187.428 723 188.455 722.892 189.061 722.73L189.409 719.356Z" fill="white"/>
<path d="M198.612 718.916C198.612 718.916 197.724 719.483 196.654 719.483C194.675 719.483 194.381 718.188 194.62 715.866C194.857 713.572 195.421 712.25 197.4 712.25C198.47 712.25 199.241 712.817 199.241 712.817L198.612 718.916ZM203.901 709.119H201.334L200.5 710.199C199.648 709.389 198.457 708.741 196.318 708.741C192.841 708.741 190.907 710.9 190.395 715.866C189.882 720.832 191.371 722.992 194.848 722.992C196.988 722.992 198.319 723.046 199.339 722.236L199.942 722.614H202.509L203.901 709.119Z" fill="white"/>
<path d="M204.221 722.625H208.482L209.876 709.131H205.616L204.221 722.625ZM205.618 705.217C205.467 706.675 206.452 707.781 207.899 707.781C209.319 707.781 210.558 706.675 210.709 705.217C210.857 703.787 209.848 702.653 208.428 702.653C206.981 702.653 205.766 703.787 205.618 705.217Z" fill="white"/>
<path d="M218.48 722.998C224.793 722.998 226.923 718.68 227.561 712.499C228.198 706.318 226.959 702 220.646 702C214.333 702 212.203 706.318 211.565 712.499C210.928 718.68 212.167 722.998 218.48 722.998ZM220.242 705.913C222.89 705.913 223.715 707.776 223.228 712.499C222.74 717.222 221.532 719.084 218.884 719.084C216.236 719.084 215.411 717.222 215.898 712.499C216.386 707.776 217.594 705.913 220.242 705.913Z" fill="white"/>
<path d="M236.267 710.313C234.211 710.016 233.482 709.557 233.633 708.1C233.766 706.804 235.069 706.102 237.29 706.102C239.323 706.102 241.488 706.642 242.529 707.182L242.96 702.999C242.077 702.486 240.121 702 237.392 702C232.095 702 229.624 704.429 229.245 708.1C228.836 712.067 230.633 713.579 235.646 714.253C237.652 714.523 238.268 715.036 238.109 716.574C237.967 717.951 236.987 718.895 233.964 718.895C231.315 718.895 229.174 717.87 228.293 717.33L227.836 721.756C229.192 722.62 231.801 722.998 233.968 722.998C238.704 722.998 242.02 721.19 242.538 716.17C242.983 711.851 240.644 710.934 236.267 710.313Z" fill="white"/>
<path d="M97 688H132V723H102C99.2386 723 97 720.761 97 718V688Z" fill="white"/>
<path d="M110.597 703.407C107.655 701.397 103.435 703.407 104.063 706.96C104.838 711.353 110.387 713.375 115.361 715.186C116.587 715.633 117.778 716.067 118.854 716.521L118.856 716.544L115.427 717.242L123.076 719C121.952 717.242 119.471 713.58 118.533 712.998L118.818 716.132C117.593 715.561 116.228 715.048 114.848 714.53C110.314 712.829 105.616 711.065 105.177 706.96C104.845 703.85 107.769 704.647 110.259 705.325C110.373 705.356 110.485 705.387 110.597 705.417V703.407Z" fill="#131313"/>
<path d="M122.146 707.937L123.723 708.641C123.811 708.681 123.924 708.634 123.975 708.539C124.026 708.444 123.996 708.334 123.908 708.295L122.311 707.582C122.632 706.828 122.812 706.005 122.812 705.145C122.812 704.286 122.632 703.511 122.311 702.844L123.908 701.696C123.996 701.632 124.026 701.515 123.975 701.433C123.924 701.351 123.811 701.336 123.723 701.4L122.146 702.533C121.296 701.065 119.707 700.208 117.848 700.284L117.848 711.358C119.707 710.928 121.296 709.638 122.146 707.937Z" fill="#131313"/>
<path d="M122.146 707.937L123.723 708.641C123.811 708.681 123.924 708.634 123.975 708.539C124.026 708.444 123.996 708.334 123.908 708.295L122.311 707.582C122.632 706.828 122.812 706.005 122.812 705.145C122.812 704.286 122.632 703.511 122.311 702.844L123.908 701.696C123.996 701.632 124.026 701.515 123.975 701.433C123.924 701.351 123.811 701.336 123.723 701.4L122.146 702.533C121.296 701.065 119.707 700.208 117.848 700.284L117.848 711.358C118.191 711.279 118.525 711.17 118.847 711.035C119.32 710.836 119.766 710.581 120.177 710.277C121.002 709.667 121.684 708.863 122.146 707.937Z" fill="#131313"/>
<path d="M124 699.446C120.606 703.194 118.201 708.426 115.501 713.502C115.501 713.502 119.233 707.813 119.823 706.873C120.413 705.934 124 699.446 124 699.446Z" fill="#131313"/>
<path d="M108.97 713.288L111.277 712.541V705.394L114.79 704.541V712.541L117.092 711.688V694.387L114.79 695.034V701.525L111.277 702.378V695.239L108.97 695.88V713.288Z" fill="#131313"/>
<path d="M108.97 713.535L111.277 712.788V705.641L114.79 704.788V712.788L117.092 711.935V694.387L114.79 695.135V701.772L111.277 702.625V695.486L108.97 696.127V713.535Z" fill="#131313"/>
<path d="M118.975 711.91C119.806 711.569 121.615 710.624 122.36 709.517C122.38 709.486 122.399 709.457 122.416 709.43C122.398 709.459 122.38 709.488 122.36 709.517C122.04 710.003 121.351 710.9 120.746 711.196C120.103 711.511 119.297 711.803 118.975 711.91Z" fill="#131313"/>
<path d="M118.739 710.913L118.819 710.729L120.924 709.582C120.924 709.582 120.95 709.765 120.633 710.436C120.99 711.081 121.056 712.32 120.418 712.314C119.78 712.308 120.056 710.975 119.974 711.014C119.892 711.053 119.511 711.724 119.26 711.618C119.009 711.511 119.171 711.052 119.114 710.966C119.068 710.898 118.845 710.902 118.739 710.913Z" fill="#131313"/>
<path fill-rule="evenodd" clip-rule="evenodd" d="M115.347 693.492C115.26 693.469 115.143 693.449 114.992 693.437C114.89 693.428 114.526 693.441 114.016 693.479C113.514 693.516 112.888 693.577 112.275 693.66C111.66 693.744 111.065 693.849 110.622 693.974C110.4 694.037 110.226 694.102 110.109 694.167C110.087 694.179 110.069 694.19 110.053 694.201C110.121 694.232 110.232 694.268 110.406 694.295C110.869 694.367 111.724 694.369 113.25 694.113C113.858 694.011 114.343 693.899 114.708 693.788C115.049 693.683 115.27 693.584 115.39 693.504C115.377 693.5 115.363 693.496 115.347 693.492ZM114.827 694.204C114.44 694.323 113.937 694.438 113.317 694.542C111.774 694.8 110.869 694.806 110.343 694.724C110.081 694.684 109.9 694.619 109.779 694.543C109.718 694.504 109.667 694.459 109.63 694.406C109.595 694.357 109.559 694.28 109.571 694.189C109.585 694.084 109.64 694 109.699 693.939C109.758 693.878 109.833 693.827 109.911 693.784C110.069 693.697 110.278 693.621 110.512 693.555C110.982 693.422 111.599 693.314 112.22 693.229C112.843 693.145 113.477 693.083 113.986 693.045C114.487 693.008 114.886 692.992 115.025 693.004C115.191 693.017 115.334 693.04 115.451 693.071C115.564 693.101 115.673 693.144 115.753 693.212C115.795 693.248 115.836 693.298 115.86 693.363C115.886 693.43 115.887 693.501 115.869 693.567C115.837 693.686 115.747 693.774 115.665 693.835C115.494 693.964 115.207 694.088 114.827 694.204Z" fill="#131313"/>
<path d="M109.958 694.942C109.789 694.963 109.77 694.685 109.782 694.543C110.442 694.73 110.823 694.772 111.52 694.737C111.29 694.858 110.872 695.703 110.556 695.676C110.24 695.65 110.283 694.945 110.201 694.897C110.118 694.849 110.168 694.915 109.958 694.942Z" fill="#131313"/>
</svg>
